<svg width="1920" height="1024" viewBox="0 0 1920 1024" fill="none" xmlns="http://www.w3.org/2000/svg">
<path d="M10.848 -207.581L5.42398 -213L0 -207.581L5.42398 -202.162L10.848 -207.581Z" fill="#282D2E"/>
<path d="M79.0319 -207.581L73.6079 -213L68.184 -207.581L73.6079 -202.162L79.0319 -207.581Z" fill="#282D2E"/>
<path d="M147.215 -207.581L141.791 -213L136.367 -207.581L141.791 -202.162L147.215 -207.581Z" fill="#282D2E"/>
<path d="M215.399 -207.581L209.975 -213L204.551 -207.581L209.975 -202.162L215.399 -207.581Z" fill="#282D2E"/>
<path d="M283.583 -207.581L278.159 -213L272.735 -207.581L278.159 -202.162L283.583 -207.581Z" fill="#282D2E"/>
<path d="M351.766 -207.581L346.342 -213L340.918 -207.581L346.342 -202.162L351.766 -207.581Z" fill="#282D2E"/>
<path d="M419.95 -207.581L414.526 -213L409.102 -207.581L414.526 -202.162L419.95 -207.581Z" fill="#282D2E"/>
<path d="M488.133 -207.581L482.71 -213L477.286 -207.581L482.71 -202.162L488.133 -207.581Z" fill="#282D2E"/>
<path d="M556.317 -207.581L550.893 -213L545.469 -207.581L550.893 -202.162L556.317 -207.581Z" fill="#282D2E"/>
<path d="M624.501 -207.581L619.077 -213L613.654 -207.581L619.077 -202.162L624.501 -207.581Z" fill="#282D2E"/>
<path d="M692.685 -207.581L687.261 -213L681.837 -207.581L687.261 -202.162L692.685 -207.581Z" fill="#282D2E"/>
<path d="M760.869 -207.581L755.445 -213L750.021 -207.581L755.445 -202.162L760.869 -207.581Z" fill="#282D2E"/>
<path d="M829.053 -207.581L823.629 -213L818.205 -207.581L823.629 -202.162L829.053 -207.581Z" fill="#282D2E"/>
<path d="M897.236 -207.581L891.812 -213L886.388 -207.581L891.812 -202.162L897.236 -207.581Z" fill="#282D2E"/>
<path d="M965.42 -207.581L959.996 -213L954.572 -207.581L959.996 -202.162L965.42 -207.581Z" fill="#282D2E"/>
<path d="M1033.6 -207.581L1028.18 -213L1022.76 -207.581L1028.18 -202.162L1033.6 -207.581Z" fill="#282D2E"/>
<path d="M1101.79 -207.581L1096.36 -213L1090.94 -207.581L1096.36 -202.162L1101.79 -207.581Z" fill="#282D2E"/>
<path d="M1169.97 -207.581L1164.55 -213L1159.12 -207.581L1164.55 -202.162L1169.97 -207.581Z" fill="#282D2E"/>
<path d="M1238.15 -207.581L1232.73 -213L1227.31 -207.581L1232.73 -202.162L1238.15 -207.581Z" fill="#282D2E"/>
<path d="M10.848 -139.461L5.42398 -144.88L0 -139.461L5.42398 -134.042L10.848 -139.461Z" fill="#282D2E"/>
<path d="M79.0319 -139.461L73.6079 -144.88L68.184 -139.461L73.6079 -134.042L79.0319 -139.461Z" fill="#282D2E"/>
<path d="M147.215 -139.461L141.791 -144.88L136.367 -139.461L141.791 -134.042L147.215 -139.461Z" fill="#282D2E"/>
<path d="M215.399 -139.461L209.975 -144.88L204.551 -139.461L209.975 -134.042L215.399 -139.461Z" fill="#282D2E"/>
<path d="M283.583 -139.461L278.159 -144.88L272.735 -139.461L278.159 -134.042L283.583 -139.461Z" fill="#282D2E"/>
<path d="M351.766 -139.461L346.342 -144.88L340.918 -139.461L346.342 -134.042L351.766 -139.461Z" fill="#282D2E"/>
<path d="M419.95 -139.461L414.526 -144.88L409.102 -139.461L414.526 -134.042L419.95 -139.461Z" fill="#282D2E"/>
<path d="M488.133 -139.461L482.71 -144.88L477.286 -139.461L482.71 -134.042L488.133 -139.461Z" fill="#282D2E"/>
<path d="M556.317 -139.461L550.893 -144.88L545.469 -139.461L550.893 -134.042L556.317 -139.461Z" fill="#282D2E"/>
<path d="M624.501 -139.461L619.077 -144.88L613.654 -139.461L619.077 -134.042L624.501 -139.461Z" fill="#282D2E"/>
<path d="M692.685 -139.461L687.261 -144.88L681.837 -139.461L687.261 -134.042L692.685 -139.461Z" fill="#282D2E"/>
<path d="M760.869 -139.461L755.445 -144.88L750.021 -139.461L755.445 -134.042L760.869 -139.461Z" fill="#282D2E"/>
<path d="M829.053 -139.461L823.629 -144.88L818.205 -139.461L823.629 -134.042L829.053 -139.461Z" fill="#282D2E"/>
<path d="M897.236 -139.461L891.812 -144.88L886.388 -139.461L891.812 -134.042L897.236 -139.461Z" fill="#282D2E"/>
<path d="M965.42 -139.461L959.996 -144.88L954.572 -139.461L959.996 -134.042L965.42 -139.461Z" fill="#282D2E"/>
<path d="M1033.6 -139.461L1028.18 -144.88L1022.76 -139.461L1028.18 -134.042L1033.6 -139.461Z" fill="#282D2E"/>
<path d="M1101.79 -139.461L1096.36 -144.88L1090.94 -139.461L1096.36 -134.042L1101.79 -139.461Z" fill="#282D2E"/>
<path d="M1169.97 -139.461L1164.55 -144.88L1159.12 -139.461L1164.55 -134.042L1169.97 -139.461Z" fill="#282D2E"/>
<path d="M1238.15 -139.461L1232.73 -144.88L1227.31 -139.461L1232.73 -134.042L1238.15 -139.461Z" fill="#282D2E"/>
<path d="M10.848 -71.3403L5.42398 -76.7592L0 -71.3403L5.42398 -65.9214L10.848 -71.3403Z" fill="#282D2E"/>
<path d="M79.0319 -71.3403L73.6079 -76.7592L68.184 -71.3403L73.6079 -65.9214L79.0319 -71.3403Z" fill="#282D2E"/>
<path d="M147.215 -71.3403L141.791 -76.7592L136.367 -71.3403L141.791 -65.9214L147.215 -71.3403Z" fill="#282D2E"/>
<path d="M215.399 -71.3403L209.975 -76.7592L204.551 -71.3403L209.975 -65.9214L215.399 -71.3403Z" fill="#282D2E"/>
<path d="M283.583 -71.3403L278.159 -76.7592L272.735 -71.3403L278.159 -65.9214L283.583 -71.3403Z" fill="#282D2E"/>
<path d="M351.766 -71.3403L346.342 -76.7592L340.918 -71.3403L346.342 -65.9214L351.766 -71.3403Z" fill="#282D2E"/>
<path d="M419.95 -71.3403L414.526 -76.7592L409.102 -71.3403L414.526 -65.9214L419.95 -71.3403Z" fill="#282D2E"/>
<path d="M488.133 -71.3403L482.71 -76.7592L477.286 -71.3403L482.71 -65.9214L488.133 -71.3403Z" fill="#282D2E"/>
<path d="M556.317 -71.3403L550.893 -76.7592L545.469 -71.3403L550.893 -65.9214L556.317 -71.3403Z" fill="#282D2E"/>
<path d="M624.501 -71.3403L619.077 -76.7592L613.654 -71.3403L619.077 -65.9214L624.501 -71.3403Z" fill="#282D2E"/>
<path d="M692.685 -71.3403L687.261 -76.7592L681.837 -71.3403L687.261 -65.9214L692.685 -71.3403Z" fill="#282D2E"/>
<path d="M760.869 -71.3403L755.445 -76.7592L750.021 -71.3403L755.445 -65.9214L760.869 -71.3403Z" fill="#282D2E"/>
<path d="M829.053 -71.3403L823.629 -76.7592L818.205 -71.3403L823.629 -65.9214L829.053 -71.3403Z" fill="#282D2E"/>
<path d="M897.236 -71.3403L891.812 -76.7592L886.388 -71.3403L891.812 -65.9214L897.236 -71.3403Z" fill="#282D2E"/>
<path d="M965.42 -71.3403L959.996 -76.7592L954.572 -71.3403L959.996 -65.9214L965.42 -71.3403Z" fill="#282D2E"/>
<path d="M1033.6 -71.3403L1028.18 -76.7592L1022.76 -71.3403L1028.18 -65.9214L1033.6 -71.3403Z" fill="#282D2E"/>
<path d="M1101.79 -71.3403L1096.36 -76.7592L1090.94 -71.3403L1096.36 -65.9214L1101.79 -71.3403Z" fill="#282D2E"/>
<path d="M1169.97 -71.3403L1164.55 -76.7592L1159.12 -71.3403L1164.55 -65.9214L1169.97 -71.3403Z" fill="#282D2E"/>
<path d="M1238.15 -71.3403L1232.73 -76.7592L1227.31 -71.3403L1232.73 -65.9214L1238.15 -71.3403Z" fill="#282D2E"/>
<path d="M10.848 -3.22002L5.42398 -8.63893L0 -3.22002L5.42398 2.1989L10.848 -3.22002Z" fill="#282D2E"/>
<path d="M79.0319 -3.22002L73.6079 -8.63893L68.184 -3.22002L73.6079 2.1989L79.0319 -3.22002Z" fill="#282D2E"/>
<path d="M147.215 -3.22002L141.791 -8.63893L136.367 -3.22002L141.791 2.1989L147.215 -3.22002Z" fill="#282D2E"/>
<path d="M215.399 -3.22002L209.975 -8.63893L204.551 -3.22002L209.975 2.1989L215.399 -3.22002Z" fill="#282D2E"/>
<path d="M283.583 -3.22002L278.159 -8.63893L272.735 -3.22002L278.159 2.1989L283.583 -3.22002Z" fill="#282D2E"/>
<path d="M351.766 -3.22002L346.342 -8.63893L340.918 -3.22002L346.342 2.1989L351.766 -3.22002Z" fill="#282D2E"/>
<path d="M419.95 -3.22002L414.526 -8.63893L409.102 -3.22002L414.526 2.1989L419.95 -3.22002Z" fill="#282D2E"/>
<path d="M488.133 -3.22002L482.71 -8.63893L477.286 -3.22002L482.71 2.1989L488.133 -3.22002Z" fill="#282D2E"/>
<path d="M556.317 -3.22002L550.893 -8.63893L545.469 -3.22002L550.893 2.1989L556.317 -3.22002Z" fill="#282D2E"/>
<path d="M624.501 -3.22002L619.077 -8.63893L613.654 -3.22002L619.077 2.1989L624.501 -3.22002Z" fill="#282D2E"/>
<path d="M692.685 -3.22002L687.261 -8.63893L681.837 -3.22002L687.261 2.1989L692.685 -3.22002Z" fill="#282D2E"/>
<path d="M760.869 -3.22002L755.445 -8.63893L750.021 -3.22002L755.445 2.1989L760.869 -3.22002Z" fill="#282D2E"/>
<path d="M829.053 -3.22002L823.629 -8.63893L818.205 -3.22002L823.629 2.1989L829.053 -3.22002Z" fill="#282D2E"/>
<path d="M897.236 -3.22002L891.812 -8.63893L886.388 -3.22002L891.812 2.1989L897.236 -3.22002Z" fill="#282D2E"/>
<path d="M965.42 -3.22002L959.996 -8.63893L954.572 -3.22002L959.996 2.1989L965.42 -3.22002Z" fill="#282D2E"/>
<path d="M1033.6 -3.22002L1028.18 -8.63893L1022.76 -3.22002L1028.18 2.1989L1033.6 -3.22002Z" fill="#282D2E"/>
<path d="M1101.79 -3.22002L1096.36 -8.63893L1090.94 -3.22002L1096.36 2.1989L1101.79 -3.22002Z" fill="#282D2E"/>
<path d="M1169.97 -3.22002L1164.55 -8.63893L1159.12 -3.22002L1164.55 2.1989L1169.97 -3.22002Z" fill="#282D2E"/>
<path d="M1238.15 -3.22002L1232.73 -8.63893L1227.31 -3.22002L1232.73 2.1989L1238.15 -3.22002Z" fill="#282D2E"/>
<path d="M10.848 64.8995L5.42398 59.4806L0 64.8995L5.42398 70.3185L10.848 64.8995Z" fill="#282D2E"/>
<path d="M79.0319 64.8995L73.6079 59.4806L68.184 64.8995L73.6079 70.3185L79.0319 64.8995Z" fill="#282D2E"/>
<path d="M147.215 64.8995L141.791 59.4806L136.367 64.8995L141.791 70.3185L147.215 64.8995Z" fill="#282D2E"/>
<path d="M215.399 64.8995L209.975 59.4806L204.551 64.8995L209.975 70.3185L215.399 64.8995Z" fill="#282D2E"/>
<path d="M283.583 64.8995L278.159 59.4806L272.735 64.8995L278.159 70.3185L283.583 64.8995Z" fill="#282D2E"/>
<path d="M351.766 64.8995L346.342 59.4806L340.918 64.8995L346.342 70.3185L351.766 64.8995Z" fill="#282D2E"/>
<path d="M419.95 64.8995L414.526 59.4806L409.102 64.8995L414.526 70.3185L419.95 64.8995Z" fill="#282D2E"/>
<path d="M488.133 64.8995L482.71 59.4806L477.286 64.8995L482.71 70.3185L488.133 64.8995Z" fill="#282D2E"/>
<path d="M556.317 64.8995L550.893 59.4806L545.469 64.8995L550.893 70.3185L556.317 64.8995Z" fill="#282D2E"/>
<path d="M624.501 64.8995L619.077 59.4806L613.654 64.8995L619.077 70.3185L624.501 64.8995Z" fill="#282D2E"/>
<path d="M692.685 64.8995L687.261 59.4806L681.837 64.8995L687.261 70.3185L692.685 64.8995Z" fill="#282D2E"/>
<path d="M760.869 64.8995L755.445 59.4806L750.021 64.8995L755.445 70.3185L760.869 64.8995Z" fill="#282D2E"/>
<path d="M829.053 64.8995L823.629 59.4806L818.205 64.8995L823.629 70.3185L829.053 64.8995Z" fill="#282D2E"/>
<path d="M897.236 64.8995L891.812 59.4806L886.388 64.8995L891.812 70.3185L897.236 64.8995Z" fill="#282D2E"/>
<path d="M965.42 64.8995L959.996 59.4806L954.572 64.8995L959.996 70.3185L965.42 64.8995Z" fill="#282D2E"/>
<path d="M1033.6 64.8995L1028.18 59.4806L1022.76 64.8995L1028.18 70.3185L1033.6 64.8995Z" fill="#282D2E"/>
<path d="M1101.79 64.8995L1096.36 59.4806L1090.94 64.8995L1096.36 70.3185L1101.79 64.8995Z" fill="#282D2E"/>
<path d="M1169.97 64.8995L1164.55 59.4806L1159.12 64.8995L1164.55 70.3185L1169.97 64.8995Z" fill="#282D2E"/>
<path d="M1238.15 64.8995L1232.73 59.4806L1227.31 64.8995L1232.73 70.3185L1238.15 64.8995Z" fill="#282D2E"/>
<path d="M10.848 133.02L5.42398 127.601L0 133.02L5.42398 138.439L10.848 133.02Z" fill="#282D2E"/>
<path d="M79.0319 133.02L73.6079 127.601L68.184 133.02L73.6079 138.439L79.0319 133.02Z" fill="#282D2E"/>
<path d="M147.215 133.02L141.791 127.601L136.367 133.02L141.791 138.439L147.215 133.02Z" fill="#282D2E"/>
<path d="M215.399 133.02L209.975 127.601L204.551 133.02L209.975 138.439L215.399 133.02Z" fill="#282D2E"/>
<path d="M283.583 133.02L278.159 127.601L272.735 133.02L278.159 138.439L283.583 133.02Z" fill="#282D2E"/>
<path d="M351.766 133.02L346.342 127.601L340.918 133.02L346.342 138.439L351.766 133.02Z" fill="#282D2E"/>
<path d="M419.95 133.02L414.526 127.601L409.102 133.02L414.526 138.439L419.95 133.02Z" fill="#282D2E"/>
<path d="M488.133 133.02L482.71 127.601L477.286 133.02L482.71 138.439L488.133 133.02Z" fill="#282D2E"/>
<path d="M556.317 133.02L550.893 127.601L545.469 133.02L550.893 138.439L556.317 133.02Z" fill="#282D2E"/>
<path d="M624.501 133.02L619.077 127.601L613.654 133.02L619.077 138.439L624.501 133.02Z" fill="#282D2E"/>
<path d="M692.685 133.02L687.261 127.601L681.837 133.02L687.261 138.439L692.685 133.02Z" fill="#282D2E"/>
<path d="M760.869 133.02L755.445 127.601L750.021 133.02L755.445 138.439L760.869 133.02Z" fill="#282D2E"/>
<path d="M829.053 133.02L823.629 127.601L818.205 133.02L823.629 138.439L829.053 133.02Z" fill="#282D2E"/>
<path d="M897.236 133.02L891.812 127.601L886.388 133.02L891.812 138.439L897.236 133.02Z" fill="#282D2E"/>
<path d="M965.42 133.02L959.996 127.601L954.572 133.02L959.996 138.439L965.42 133.02Z" fill="#282D2E"/>
<path d="M1033.6 133.02L1028.18 127.601L1022.76 133.02L1028.18 138.439L1033.6 133.02Z" fill="#282D2E"/>
<path d="M1101.79 133.02L1096.36 127.601L1090.94 133.02L1096.36 138.439L1101.79 133.02Z" fill="#282D2E"/>
<path d="M1169.97 133.02L1164.55 127.601L1159.12 133.02L1164.55 138.439L1169.97 133.02Z" fill="#282D2E"/>
<path d="M1238.15 133.02L1232.73 127.601L1227.31 133.02L1232.73 138.439L1238.15 133.02Z" fill="#282D2E"/>
<path d="M10.848 201.14L5.42398 195.721L0 201.14L5.42398 206.559L10.848 201.14Z" fill="#282D2E"/>
<path d="M79.0319 201.14L73.6079 195.721L68.184 201.14L73.6079 206.559L79.0319 201.14Z" fill="#282D2E"/>
<path d="M147.215 201.14L141.791 195.721L136.367 201.14L141.791 206.559L147.215 201.14Z" fill="#282D2E"/>
<path d="M215.399 201.14L209.975 195.721L204.551 201.14L209.975 206.559L215.399 201.14Z" fill="#282D2E"/>
<path d="M283.583 201.14L278.159 195.721L272.735 201.14L278.159 206.559L283.583 201.14Z" fill="#282D2E"/>
<path d="M351.766 201.14L346.342 195.721L340.918 201.14L346.342 206.559L351.766 201.14Z" fill="#282D2E"/>
<path d="M419.95 201.14L414.526 195.721L409.102 201.14L414.526 206.559L419.95 201.14Z" fill="#282D2E"/>
<path d="M488.133 201.14L482.71 195.721L477.286 201.14L482.71 206.559L488.133 201.14Z" fill="#282D2E"/>
<path d="M556.317 201.14L550.893 195.721L545.469 201.14L550.893 206.559L556.317 201.14Z" fill="#282D2E"/>
<path d="M624.501 201.14L619.077 195.721L613.654 201.14L619.077 206.559L624.501 201.14Z" fill="#282D2E"/>
<path d="M692.685 201.14L687.261 195.721L681.837 201.14L687.261 206.559L692.685 201.14Z" fill="#282D2E"/>
<path d="M760.869 201.14L755.445 195.721L750.021 201.14L755.445 206.559L760.869 201.14Z" fill="#282D2E"/>
<path d="M829.053 201.14L823.629 195.721L818.205 201.14L823.629 206.559L829.053 201.14Z" fill="#282D2E"/>
<path d="M897.236 201.14L891.812 195.721L886.388 201.14L891.812 206.559L897.236 201.14Z" fill="#282D2E"/>
<path d="M965.42 201.14L959.996 195.721L954.572 201.14L959.996 206.559L965.42 201.14Z" fill="#282D2E"/>
<path d="M1033.6 201.14L1028.18 195.721L1022.76 201.14L1028.18 206.559L1033.6 201.14Z" fill="#282D2E"/>
<path d="M1101.79 201.14L1096.36 195.721L1090.94 201.14L1096.36 206.559L1101.79 201.14Z" fill="#282D2E"/>
<path d="M1169.97 201.14L1164.55 195.721L1159.12 201.14L1164.55 206.559L1169.97 201.14Z" fill="#282D2E"/>
<path d="M1238.15 201.14L1232.73 195.721L1227.31 201.14L1232.73 206.559L1238.15 201.14Z" fill="#282D2E"/>
<path d="M10.848 269.259L5.42398 263.84L0 269.259L5.42398 274.678L10.848 269.259Z" fill="#282D2E"/>
<path d="M79.0319 269.259L73.6079 263.84L68.184 269.259L73.6079 274.678L79.0319 269.259Z" fill="#282D2E"/>
<path d="M147.215 269.259L141.791 263.84L136.367 269.259L141.791 274.678L147.215 269.259Z" fill="#282D2E"/>
<path d="M215.399 269.259L209.975 263.84L204.551 269.259L209.975 274.678L215.399 269.259Z" fill="#282D2E"/>
<path d="M283.583 269.259L278.159 263.84L272.735 269.259L278.159 274.678L283.583 269.259Z" fill="#282D2E"/>
<path d="M351.766 269.259L346.342 263.84L340.918 269.259L346.342 274.678L351.766 269.259Z" fill="#282D2E"/>
<path d="M419.95 269.259L414.526 263.84L409.102 269.259L414.526 274.678L419.95 269.259Z" fill="#282D2E"/>
<path d="M488.133 269.259L482.71 263.84L477.286 269.259L482.71 274.678L488.133 269.259Z" fill="#282D2E"/>
<path d="M556.317 269.259L550.893 263.84L545.469 269.259L550.893 274.678L556.317 269.259Z" fill="#282D2E"/>
<path d="M624.501 269.259L619.077 263.84L613.654 269.259L619.077 274.678L624.501 269.259Z" fill="#282D2E"/>
<path d="M692.685 269.259L687.261 263.84L681.837 269.259L687.261 274.678L692.685 269.259Z" fill="#282D2E"/>
<path d="M760.869 269.259L755.445 263.84L750.021 269.259L755.445 274.678L760.869 269.259Z" fill="#282D2E"/>
<path d="M829.053 269.259L823.629 263.84L818.205 269.259L823.629 274.678L829.053 269.259Z" fill="#282D2E"/>
<path d="M897.236 269.259L891.812 263.84L886.388 269.259L891.812 274.678L897.236 269.259Z" fill="#282D2E"/>
<path d="M965.42 269.259L959.996 263.84L954.572 269.259L959.996 274.678L965.42 269.259Z" fill="#282D2E"/>
<path d="M1033.6 269.259L1028.18 263.84L1022.76 269.259L1028.18 274.678L1033.6 269.259Z" fill="#282D2E"/>
<path d="M1101.79 269.259L1096.36 263.84L1090.94 269.259L1096.36 274.678L1101.79 269.259Z" fill="#282D2E"/>
<path d="M1169.97 269.259L1164.55 263.84L1159.12 269.259L1164.55 274.678L1169.97 269.259Z" fill="#282D2E"/>
<path d="M1238.15 269.259L1232.73 263.84L1227.31 269.259L1232.73 274.678L1238.15 269.259Z" fill="#282D2E"/>
<path d="M10.848 337.38L5.42398 331.961L0 337.38L5.42398 342.799L10.848 337.38Z" fill="#282D2E"/>
<path d="M79.0319 337.38L73.6079 331.961L68.184 337.38L73.6079 342.799L79.0319 337.38Z" fill="#282D2E"/>
<path d="M147.215 337.38L141.791 331.961L136.367 337.38L141.791 342.799L147.215 337.38Z" fill="#282D2E"/>
<path d="M215.399 337.38L209.975 331.961L204.551 337.38L209.975 342.799L215.399 337.38Z" fill="#282D2E"/>
<path d="M283.583 337.38L278.159 331.961L272.735 337.38L278.159 342.799L283.583 337.38Z" fill="#282D2E"/>
<path d="M351.766 337.38L346.342 331.961L340.918 337.38L346.342 342.799L351.766 337.38Z" fill="#282D2E"/>
<path d="M419.95 337.38L414.526 331.961L409.102 337.38L414.526 342.799L419.95 337.38Z" fill="#282D2E"/>
<path d="M488.133 337.38L482.71 331.961L477.286 337.38L482.71 342.799L488.133 337.38Z" fill="#282D2E"/>
<path d="M556.317 337.38L550.893 331.961L545.469 337.38L550.893 342.799L556.317 337.38Z" fill="#282D2E"/>
<path d="M624.501 337.38L619.077 331.961L613.654 337.38L619.077 342.799L624.501 337.38Z" fill="#282D2E"/>
<path d="M692.685 337.38L687.261 331.961L681.837 337.38L687.261 342.799L692.685 337.38Z" fill="#282D2E"/>
<path d="M760.869 337.38L755.445 331.961L750.021 337.38L755.445 342.799L760.869 337.38Z" fill="#282D2E"/>
<path d="M829.053 337.38L823.629 331.961L818.205 337.38L823.629 342.799L829.053 337.38Z" fill="#282D2E"/>
<path d="M897.236 337.38L891.812 331.961L886.388 337.38L891.812 342.799L897.236 337.38Z" fill="#282D2E"/>
<path d="M965.42 337.38L959.996 331.961L954.572 337.38L959.996 342.799L965.42 337.38Z" fill="#282D2E"/>
<path d="M1033.6 337.38L1028.18 331.961L1022.76 337.38L1028.18 342.799L1033.6 337.38Z" fill="#282D2E"/>
<path d="M1101.79 337.38L1096.36 331.961L1090.94 337.38L1096.36 342.799L1101.79 337.38Z" fill="#282D2E"/>
<path d="M1169.97 337.38L1164.55 331.961L1159.12 337.38L1164.55 342.799L1169.97 337.38Z" fill="#282D2E"/>
<path d="M1238.15 337.38L1232.73 331.961L1227.31 337.38L1232.73 342.799L1238.15 337.38Z" fill="#282D2E"/>
<path d="M10.848 405.5L5.42398 400.082L0 405.5L5.42398 410.919L10.848 405.5Z" fill="#282D2E"/>
<path d="M79.0319 405.5L73.6079 400.082L68.184 405.5L73.6079 410.919L79.0319 405.5Z" fill="#282D2E"/>
<path d="M147.215 405.5L141.791 400.082L136.367 405.5L141.791 410.919L147.215 405.5Z" fill="#282D2E"/>
<path d="M215.399 405.5L209.975 400.082L204.551 405.5L209.975 410.919L215.399 405.5Z" fill="#282D2E"/>
<path d="M283.583 405.5L278.159 400.082L272.735 405.5L278.159 410.919L283.583 405.5Z" fill="#282D2E"/>
<path d="M351.766 405.5L346.342 400.082L340.918 405.5L346.342 410.919L351.766 405.5Z" fill="#282D2E"/>
<path d="M419.95 405.5L414.526 400.082L409.102 405.5L414.526 410.919L419.95 405.5Z" fill="#282D2E"/>
<path d="M488.133 405.5L482.71 400.082L477.286 405.5L482.71 410.919L488.133 405.5Z" fill="#282D2E"/>
<path d="M556.317 405.5L550.893 400.082L545.469 405.5L550.893 410.919L556.317 405.5Z" fill="#282D2E"/>
<path d="M624.501 405.5L619.077 400.082L613.654 405.5L619.077 410.919L624.501 405.5Z" fill="#282D2E"/>
<path d="M692.685 405.5L687.261 400.082L681.837 405.5L687.261 410.919L692.685 405.5Z" fill="#282D2E"/>
<path d="M760.869 405.5L755.445 400.082L750.021 405.5L755.445 410.919L760.869 405.5Z" fill="#282D2E"/>
<path d="M829.053 405.5L823.629 400.082L818.205 405.5L823.629 410.919L829.053 405.5Z" fill="#282D2E"/>
<path d="M897.236 405.5L891.812 400.082L886.388 405.5L891.812 410.919L897.236 405.5Z" fill="#282D2E"/>
<path d="M965.42 405.5L959.996 400.082L954.572 405.5L959.996 410.919L965.42 405.5Z" fill="#282D2E"/>
<path d="M1033.6 405.5L1028.18 400.082L1022.76 405.5L1028.18 410.919L1033.6 405.5Z" fill="#282D2E"/>
<path d="M1101.79 405.5L1096.36 400.082L1090.94 405.5L1096.36 410.919L1101.79 405.5Z" fill="#282D2E"/>
<path d="M1169.97 405.5L1164.55 400.082L1159.12 405.5L1164.55 410.919L1169.97 405.5Z" fill="#282D2E"/>
<path d="M1238.15 405.5L1232.73 400.082L1227.31 405.5L1232.73 410.919L1238.15 405.5Z" fill="#282D2E"/>
<path d="M10.848 473.62L5.42398 468.201L0 473.62L5.42398 479.039L10.848 473.62Z" fill="#282D2E"/>
<path d="M79.0319 473.62L73.6079 468.201L68.184 473.62L73.6079 479.039L79.0319 473.62Z" fill="#282D2E"/>
<path d="M147.215 473.62L141.791 468.201L136.367 473.62L141.791 479.039L147.215 473.62Z" fill="#282D2E"/>
<path d="M215.399 473.62L209.975 468.201L204.551 473.62L209.975 479.039L215.399 473.62Z" fill="#282D2E"/>
<path d="M283.583 473.62L278.159 468.201L272.735 473.62L278.159 479.039L283.583 473.62Z" fill="#282D2E"/>
<path d="M351.766 473.62L346.342 468.201L340.918 473.62L346.342 479.039L351.766 473.62Z" fill="#282D2E"/>
<path d="M419.95 473.62L414.526 468.201L409.102 473.62L414.526 479.039L419.95 473.62Z" fill="#282D2E"/>
<path d="M488.133 473.62L482.71 468.201L477.286 473.62L482.71 479.039L488.133 473.62Z" fill="#282D2E"/>
<path d="M556.317 473.62L550.893 468.201L545.469 473.62L550.893 479.039L556.317 473.62Z" fill="#282D2E"/>
<path d="M624.501 473.62L619.077 468.201L613.654 473.62L619.077 479.039L624.501 473.62Z" fill="#282D2E"/>
<path d="M692.685 473.62L687.261 468.201L681.837 473.62L687.261 479.039L692.685 473.62Z" fill="#282D2E"/>
<path d="M760.869 473.62L755.445 468.201L750.021 473.62L755.445 479.039L760.869 473.62Z" fill="#282D2E"/>
<path d="M829.053 473.62L823.629 468.201L818.205 473.62L823.629 479.039L829.053 473.62Z" fill="#282D2E"/>
<path d="M897.236 473.62L891.812 468.201L886.388 473.62L891.812 479.039L897.236 473.62Z" fill="#282D2E"/>
<path d="M965.42 473.62L959.996 468.201L954.572 473.62L959.996 479.039L965.42 473.62Z" fill="#282D2E"/>
<path d="M1033.6 473.62L1028.18 468.201L1022.76 473.62L1028.18 479.039L1033.6 473.62Z" fill="#282D2E"/>
<path d="M1101.79 473.62L1096.36 468.201L1090.94 473.62L1096.36 479.039L1101.79 473.62Z" fill="#282D2E"/>
<path d="M1169.97 473.62L1164.55 468.201L1159.12 473.62L1164.55 479.039L1169.97 473.62Z" fill="#282D2E"/>
<path d="M1238.15 473.62L1232.73 468.201L1227.31 473.62L1232.73 479.039L1238.15 473.62Z" fill="#282D2E"/>
<path d="M10.848 541.739L5.42398 536.32L0 541.739L5.42398 547.158L10.848 541.739Z" fill="#282D2E"/>
<path d="M79.0319 541.739L73.6079 536.32L68.184 541.739L73.6079 547.158L79.0319 541.739Z" fill="#282D2E"/>
<path d="M147.215 541.739L141.791 536.32L136.367 541.739L141.791 547.158L147.215 541.739Z" fill="#282D2E"/>
<path d="M215.399 541.739L209.975 536.32L204.551 541.739L209.975 547.158L215.399 541.739Z" fill="#282D2E"/>
<path d="M283.583 541.739L278.159 536.32L272.735 541.739L278.159 547.158L283.583 541.739Z" fill="#282D2E"/>
<path d="M351.766 541.739L346.342 536.32L340.918 541.739L346.342 547.158L351.766 541.739Z" fill="#282D2E"/>
<path d="M419.95 541.739L414.526 536.32L409.102 541.739L414.526 547.158L419.95 541.739Z" fill="#282D2E"/>
<path d="M488.133 541.739L482.71 536.32L477.286 541.739L482.71 547.158L488.133 541.739Z" fill="#282D2E"/>
<path d="M556.317 541.739L550.893 536.32L545.469 541.739L550.893 547.158L556.317 541.739Z" fill="#282D2E"/>
<path d="M624.501 541.739L619.077 536.32L613.654 541.739L619.077 547.158L624.501 541.739Z" fill="#282D2E"/>
<path d="M692.685 541.739L687.261 536.32L681.837 541.739L687.261 547.158L692.685 541.739Z" fill="#282D2E"/>
<path d="M760.869 541.739L755.445 536.32L750.021 541.739L755.445 547.158L760.869 541.739Z" fill="#282D2E"/>
<path d="M829.053 541.739L823.629 536.32L818.205 541.739L823.629 547.158L829.053 541.739Z" fill="#282D2E"/>
<path d="M897.236 541.739L891.812 536.32L886.388 541.739L891.812 547.158L897.236 541.739Z" fill="#282D2E"/>
<path d="M965.42 541.739L959.996 536.32L954.572 541.739L959.996 547.158L965.42 541.739Z" fill="#282D2E"/>
<path d="M1033.6 541.739L1028.18 536.32L1022.76 541.739L1028.18 547.158L1033.6 541.739Z" fill="#282D2E"/>
<path d="M1101.79 541.739L1096.36 536.32L1090.94 541.739L1096.36 547.158L1101.79 541.739Z" fill="#282D2E"/>
<path d="M1169.97 541.739L1164.55 536.32L1159.12 541.739L1164.55 547.158L1169.97 541.739Z" fill="#282D2E"/>
<path d="M1238.15 541.739L1232.73 536.32L1227.31 541.739L1232.73 547.158L1238.15 541.739Z" fill="#282D2E"/>
<path d="M10.848 609.861L5.42398 604.442L0 609.861L5.42398 615.28L10.848 609.861Z" fill="#282D2E"/>
<path d="M79.0319 609.861L73.6079 604.442L68.184 609.861L73.6079 615.28L79.0319 609.861Z" fill="#282D2E"/>
<path d="M147.215 609.861L141.791 604.442L136.367 609.861L141.791 615.28L147.215 609.861Z" fill="#282D2E"/>
<path d="M215.399 609.861L209.975 604.442L204.551 609.861L209.975 615.28L215.399 609.861Z" fill="#282D2E"/>
<path d="M283.583 609.861L278.159 604.442L272.735 609.861L278.159 615.28L283.583 609.861Z" fill="#282D2E"/>
<path d="M351.766 609.861L346.342 604.442L340.918 609.861L346.342 615.28L351.766 609.861Z" fill="#282D2E"/>
<path d="M419.95 609.861L414.526 604.442L409.102 609.861L414.526 615.28L419.95 609.861Z" fill="#282D2E"/>
<path d="M488.133 609.861L482.71 604.442L477.286 609.861L482.71 615.28L488.133 609.861Z" fill="#282D2E"/>
<path d="M556.317 609.861L550.893 604.442L545.469 609.861L550.893 615.28L556.317 609.861Z" fill="#282D2E"/>
<path d="M624.501 609.861L619.077 604.442L613.654 609.861L619.077 615.28L624.501 609.861Z" fill="#282D2E"/>
<path d="M692.685 609.861L687.261 604.442L681.837 609.861L687.261 615.28L692.685 609.861Z" fill="#282D2E"/>
<path d="M760.869 609.861L755.445 604.442L750.021 609.861L755.445 615.28L760.869 609.861Z" fill="#282D2E"/>
<path d="M829.053 609.861L823.629 604.442L818.205 609.861L823.629 615.28L829.053 609.861Z" fill="#282D2E"/>
<path d="M897.236 609.861L891.812 604.442L886.388 609.861L891.812 615.28L897.236 609.861Z" fill="#282D2E"/>
<path d="M965.42 609.861L959.996 604.442L954.572 609.861L959.996 615.28L965.42 609.861Z" fill="#282D2E"/>
<path d="M1033.6 609.861L1028.18 604.442L1022.76 609.861L1028.18 615.28L1033.6 609.861Z" fill="#282D2E"/>
<path d="M1101.79 609.861L1096.36 604.442L1090.94 609.861L1096.36 615.28L1101.79 609.861Z" fill="#282D2E"/>
<path d="M1169.97 609.861L1164.55 604.442L1159.12 609.861L1164.55 615.28L1169.97 609.861Z" fill="#282D2E"/>
<path d="M1238.15 609.861L1232.73 604.442L1227.31 609.861L1232.73 615.28L1238.15 609.861Z" fill="#282D2E"/>
<path d="M10.848 677.98L5.42398 672.561L0 677.98L5.42398 683.399L10.848 677.98Z" fill="#282D2E"/>
<path d="M79.0319 677.98L73.6079 672.561L68.184 677.98L73.6079 683.399L79.0319 677.98Z" fill="#282D2E"/>
<path d="M147.215 677.98L141.791 672.561L136.367 677.98L141.791 683.399L147.215 677.98Z" fill="#282D2E"/>
<path d="M215.399 677.98L209.975 672.561L204.551 677.98L209.975 683.399L215.399 677.98Z" fill="#282D2E"/>
<path d="M283.583 677.98L278.159 672.561L272.735 677.98L278.159 683.399L283.583 677.98Z" fill="#282D2E"/>
<path d="M351.766 677.98L346.342 672.561L340.918 677.98L346.342 683.399L351.766 677.98Z" fill="#282D2E"/>
<path d="M419.95 677.98L414.526 672.561L409.102 677.98L414.526 683.399L419.95 677.98Z" fill="#282D2E"/>
<path d="M488.133 677.98L482.71 672.561L477.286 677.98L482.71 683.399L488.133 677.98Z" fill="#282D2E"/>
<path d="M556.317 677.98L550.893 672.561L545.469 677.98L550.893 683.399L556.317 677.98Z" fill="#282D2E"/>
<path d="M624.501 677.98L619.077 672.561L613.654 677.98L619.077 683.399L624.501 677.98Z" fill="#282D2E"/>
<path d="M692.685 677.98L687.261 672.561L681.837 677.98L687.261 683.399L692.685 677.98Z" fill="#282D2E"/>
<path d="M760.869 677.98L755.445 672.561L750.021 677.98L755.445 683.399L760.869 677.98Z" fill="#282D2E"/>
<path d="M829.053 677.98L823.629 672.561L818.205 677.98L823.629 683.399L829.053 677.98Z" fill="#282D2E"/>
<path d="M897.236 677.98L891.812 672.561L886.388 677.98L891.812 683.399L897.236 677.98Z" fill="#282D2E"/>
<path d="M965.42 677.98L959.996 672.561L954.572 677.98L959.996 683.399L965.42 677.98Z" fill="#282D2E"/>
<path d="M1033.6 677.98L1028.18 672.561L1022.76 677.98L1028.18 683.399L1033.6 677.98Z" fill="#282D2E"/>
<path d="M1101.79 677.98L1096.36 672.561L1090.94 677.98L1096.36 683.399L1101.79 677.98Z" fill="#282D2E"/>
<path d="M1169.97 677.98L1164.55 672.561L1159.12 677.98L1164.55 683.399L1169.97 677.98Z" fill="#282D2E"/>
<path d="M1238.15 677.98L1232.73 672.561L1227.31 677.98L1232.73 683.399L1238.15 677.98Z" fill="#282D2E"/>
<path d="M10.848 746.1L5.42398 740.681L0 746.1L5.42398 751.519L10.848 746.1Z" fill="#282D2E"/>
<path d="M79.0319 746.1L73.6079 740.681L68.184 746.1L73.6079 751.519L79.0319 746.1Z" fill="#282D2E"/>
<path d="M147.215 746.1L141.791 740.681L136.367 746.1L141.791 751.519L147.215 746.1Z" fill="#282D2E"/>
<path d="M215.399 746.1L209.975 740.681L204.551 746.1L209.975 751.519L215.399 746.1Z" fill="#282D2E"/>
<path d="M283.583 746.1L278.159 740.681L272.735 746.1L278.159 751.519L283.583 746.1Z" fill="#282D2E"/>
<path d="M351.766 746.1L346.342 740.681L340.918 746.1L346.342 751.519L351.766 746.1Z" fill="#282D2E"/>
<path d="M419.95 746.1L414.526 740.681L409.102 746.1L414.526 751.519L419.95 746.1Z" fill="#282D2E"/>
<path d="M488.133 746.1L482.71 740.681L477.286 746.1L482.71 751.519L488.133 746.1Z" fill="#282D2E"/>
<path d="M556.317 746.1L550.893 740.681L545.469 746.1L550.893 751.519L556.317 746.1Z" fill="#282D2E"/>
<path d="M624.501 746.1L619.077 740.681L613.654 746.1L619.077 751.519L624.501 746.1Z" fill="#282D2E"/>
<path d="M692.685 746.1L687.261 740.681L681.837 746.1L687.261 751.519L692.685 746.1Z" fill="#282D2E"/>
<path d="M760.869 746.1L755.445 740.681L750.021 746.1L755.445 751.519L760.869 746.1Z" fill="#282D2E"/>
<path d="M829.053 746.1L823.629 740.681L818.205 746.1L823.629 751.519L829.053 746.1Z" fill="#282D2E"/>
<path d="M897.236 746.1L891.812 740.681L886.388 746.1L891.812 751.519L897.236 746.1Z" fill="#282D2E"/>
<path d="M965.42 746.1L959.996 740.681L954.572 746.1L959.996 751.519L965.42 746.1Z" fill="#282D2E"/>
<path d="M1033.6 746.1L1028.18 740.681L1022.76 746.1L1028.18 751.519L1033.6 746.1Z" fill="#282D2E"/>
<path d="M1101.79 746.1L1096.36 740.681L1090.94 746.1L1096.36 751.519L1101.79 746.1Z" fill="#282D2E"/>
<path d="M1169.97 746.1L1164.55 740.681L1159.12 746.1L1164.55 751.519L1169.97 746.1Z" fill="#282D2E"/>
<path d="M1238.15 746.1L1232.73 740.681L1227.31 746.1L1232.73 751.519L1238.15 746.1Z" fill="#282D2E"/>
<path d="M10.848 814.221L5.42398 808.802L0 814.221L5.42398 819.64L10.848 814.221Z" fill="#282D2E"/>
<path d="M79.0319 814.221L73.6079 808.802L68.184 814.221L73.6079 819.64L79.0319 814.221Z" fill="#282D2E"/>
<path d="M147.215 814.221L141.791 808.802L136.367 814.221L141.791 819.64L147.215 814.221Z" fill="#282D2E"/>
<path d="M215.399 814.221L209.975 808.802L204.551 814.221L209.975 819.64L215.399 814.221Z" fill="#282D2E"/>
<path d="M283.583 814.221L278.159 808.802L272.735 814.221L278.159 819.64L283.583 814.221Z" fill="#282D2E"/>
<path d="M351.766 814.221L346.342 808.802L340.918 814.221L346.342 819.64L351.766 814.221Z" fill="#282D2E"/>
<path d="M419.95 814.221L414.526 808.802L409.102 814.221L414.526 819.64L419.95 814.221Z" fill="#282D2E"/>
<path d="M488.133 814.221L482.71 808.802L477.286 814.221L482.71 819.64L488.133 814.221Z" fill="#282D2E"/>
<path d="M556.317 814.221L550.893 808.802L545.469 814.221L550.893 819.64L556.317 814.221Z" fill="#282D2E"/>
<path d="M624.501 814.221L619.077 808.802L613.654 814.221L619.077 819.64L624.501 814.221Z" fill="#282D2E"/>
<path d="M692.685 814.221L687.261 808.802L681.837 814.221L687.261 819.64L692.685 814.221Z" fill="#282D2E"/>
<path d="M760.869 814.221L755.445 808.802L750.021 814.221L755.445 819.64L760.869 814.221Z" fill="#282D2E"/>
<path d="M829.053 814.221L823.629 808.802L818.205 814.221L823.629 819.64L829.053 814.221Z" fill="#282D2E"/>
<path d="M897.236 814.221L891.812 808.802L886.388 814.221L891.812 819.64L897.236 814.221Z" fill="#282D2E"/>
<path d="M965.42 814.221L959.996 808.802L954.572 814.221L959.996 819.64L965.42 814.221Z" fill="#282D2E"/>
<path d="M1033.6 814.221L1028.18 808.802L1022.76 814.221L1028.18 819.64L1033.6 814.221Z" fill="#282D2E"/>
<path d="M1101.79 814.221L1096.36 808.802L1090.94 814.221L1096.36 819.64L1101.79 814.221Z" fill="#282D2E"/>
<path d="M1169.97 814.221L1164.55 808.802L1159.12 814.221L1164.55 819.64L1169.97 814.221Z" fill="#282D2E"/>
<path d="M1238.15 814.221L1232.73 808.802L1227.31 814.221L1232.73 819.64L1238.15 814.221Z" fill="#282D2E"/>
<path d="M10.848 882.34L5.42398 876.921L0 882.34L5.42398 887.759L10.848 882.34Z" fill="#282D2E"/>
<path d="M79.0319 882.34L73.6079 876.921L68.184 882.34L73.6079 887.759L79.0319 882.34Z" fill="#282D2E"/>
<path d="M147.215 882.34L141.791 876.921L136.367 882.34L141.791 887.759L147.215 882.34Z" fill="#282D2E"/>
<path d="M215.399 882.34L209.975 876.921L204.551 882.34L209.975 887.759L215.399 882.34Z" fill="#282D2E"/>
<path d="M283.583 882.34L278.159 876.921L272.735 882.34L278.159 887.759L283.583 882.34Z" fill="#282D2E"/>
<path d="M351.766 882.34L346.342 876.921L340.918 882.34L346.342 887.759L351.766 882.34Z" fill="#282D2E"/>
<path d="M419.95 882.34L414.526 876.921L409.102 882.34L414.526 887.759L419.95 882.34Z" fill="#282D2E"/>
<path d="M488.133 882.34L482.71 876.921L477.286 882.34L482.71 887.759L488.133 882.34Z" fill="#282D2E"/>
<path d="M556.317 882.34L550.893 876.921L545.469 882.34L550.893 887.759L556.317 882.34Z" fill="#282D2E"/>
<path d="M624.501 882.34L619.077 876.921L613.654 882.34L619.077 887.759L624.501 882.34Z" fill="#282D2E"/>
<path d="M692.685 882.34L687.261 876.921L681.837 882.34L687.261 887.759L692.685 882.34Z" fill="#282D2E"/>
<path d="M760.869 882.34L755.445 876.921L750.021 882.34L755.445 887.759L760.869 882.34Z" fill="#282D2E"/>
<path d="M829.053 882.34L823.629 876.921L818.205 882.34L823.629 887.759L829.053 882.34Z" fill="#282D2E"/>
<path d="M897.236 882.34L891.812 876.921L886.388 882.34L891.812 887.759L897.236 882.34Z" fill="#282D2E"/>
<path d="M965.42 882.34L959.996 876.921L954.572 882.34L959.996 887.759L965.42 882.34Z" fill="#282D2E"/>
<path d="M1033.6 882.34L1028.18 876.921L1022.76 882.34L1028.18 887.759L1033.6 882.34Z" fill="#282D2E"/>
<path d="M1101.79 882.34L1096.36 876.921L1090.94 882.34L1096.36 887.759L1101.79 882.34Z" fill="#282D2E"/>
<path d="M1169.97 882.34L1164.55 876.921L1159.12 882.34L1164.55 887.759L1169.97 882.34Z" fill="#282D2E"/>
<path d="M1238.15 882.34L1232.73 876.921L1227.31 882.34L1232.73 887.759L1238.15 882.34Z" fill="#282D2E"/>
<path d="M10.848 950.46L5.42398 945.041L0 950.46L5.42398 955.879L10.848 950.46Z" fill="#282D2E"/>
<path d="M79.0319 950.46L73.6079 945.041L68.184 950.46L73.6079 955.879L79.0319 950.46Z" fill="#282D2E"/>
<path d="M147.215 950.46L141.791 945.041L136.367 950.46L141.791 955.879L147.215 950.46Z" fill="#282D2E"/>
<path d="M215.399 950.46L209.975 945.041L204.551 950.46L209.975 955.879L215.399 950.46Z" fill="#282D2E"/>
<path d="M283.583 950.46L278.159 945.041L272.735 950.46L278.159 955.879L283.583 950.46Z" fill="#282D2E"/>
<path d="M351.766 950.46L346.342 945.041L340.918 950.46L346.342 955.879L351.766 950.46Z" fill="#282D2E"/>
<path d="M419.95 950.46L414.526 945.041L409.102 950.46L414.526 955.879L419.95 950.46Z" fill="#282D2E"/>
<path d="M488.133 950.46L482.71 945.041L477.286 950.46L482.71 955.879L488.133 950.46Z" fill="#282D2E"/>
<path d="M556.317 950.46L550.893 945.041L545.469 950.46L550.893 955.879L556.317 950.46Z" fill="#282D2E"/>
<path d="M624.501 950.46L619.077 945.041L613.654 950.46L619.077 955.879L624.501 950.46Z" fill="#282D2E"/>
<path d="M692.685 950.46L687.261 945.041L681.837 950.46L687.261 955.879L692.685 950.46Z" fill="#282D2E"/>
<path d="M760.869 950.46L755.445 945.041L750.021 950.46L755.445 955.879L760.869 950.46Z" fill="#282D2E"/>
<path d="M829.053 950.46L823.629 945.041L818.205 950.46L823.629 955.879L829.053 950.46Z" fill="#282D2E"/>
<path d="M897.236 950.46L891.812 945.041L886.388 950.46L891.812 955.879L897.236 950.46Z" fill="#282D2E"/>
<path d="M965.42 950.46L959.996 945.041L954.572 950.46L959.996 955.879L965.42 950.46Z" fill="#282D2E"/>
<path d="M1033.6 950.46L1028.18 945.041L1022.76 950.46L1028.18 955.879L1033.6 950.46Z" fill="#282D2E"/>
<path d="M1101.79 950.46L1096.36 945.041L1090.94 950.46L1096.36 955.879L1101.79 950.46Z" fill="#282D2E"/>
<path d="M1169.97 950.46L1164.55 945.041L1159.12 950.46L1164.55 955.879L1169.97 950.46Z" fill="#282D2E"/>
<path d="M1238.15 950.46L1232.73 945.041L1227.31 950.46L1232.73 955.879L1238.15 950.46Z" fill="#282D2E"/>
<path d="M10.848 1018.58L5.42398 1013.16L0 1018.58L5.42398 1024L10.848 1018.58Z" fill="#282D2E"/>
<path d="M79.0319 1018.58L73.6079 1013.16L68.184 1018.58L73.6079 1024L79.0319 1018.58Z" fill="#282D2E"/>
<path d="M147.215 1018.58L141.791 1013.16L136.367 1018.58L141.791 1024L147.215 1018.58Z" fill="#282D2E"/>
<path d="M215.399 1018.58L209.975 1013.16L204.551 1018.58L209.975 1024L215.399 1018.58Z" fill="#282D2E"/>
<path d="M283.583 1018.58L278.159 1013.16L272.735 1018.58L278.159 1024L283.583 1018.58Z" fill="#282D2E"/>
<path d="M351.766 1018.58L346.342 1013.16L340.918 1018.58L346.342 1024L351.766 1018.58Z" fill="#282D2E"/>
<path d="M419.95 1018.58L414.526 1013.16L409.102 1018.58L414.526 1024L419.95 1018.58Z" fill="#282D2E"/>
<path d="M488.133 1018.58L482.71 1013.16L477.286 1018.58L482.71 1024L488.133 1018.58Z" fill="#282D2E"/>
<path d="M556.317 1018.58L550.893 1013.16L545.469 1018.58L550.893 1024L556.317 1018.58Z" fill="#282D2E"/>
<path d="M624.501 1018.58L619.077 1013.16L613.654 1018.58L619.077 1024L624.501 1018.58Z" fill="#282D2E"/>
<path d="M692.685 1018.58L687.261 1013.16L681.837 1018.58L687.261 1024L692.685 1018.58Z" fill="#282D2E"/>
<path d="M760.869 1018.58L755.445 1013.16L750.021 1018.58L755.445 1024L760.869 1018.58Z" fill="#282D2E"/>
<path d="M829.053 1018.58L823.629 1013.16L818.205 1018.58L823.629 1024L829.053 1018.58Z" fill="#282D2E"/>
<path d="M897.236 1018.58L891.812 1013.16L886.388 1018.58L891.812 1024L897.236 1018.58Z" fill="#282D2E"/>
<path d="M965.42 1018.58L959.996 1013.16L954.572 1018.58L959.996 1024L965.42 1018.58Z" fill="#282D2E"/>
<path d="M1033.6 1018.58L1028.18 1013.16L1022.76 1018.58L1028.18 1024L1033.6 1018.58Z" fill="#282D2E"/>
<path d="M1101.79 1018.58L1096.36 1013.16L1090.94 1018.58L1096.36 1024L1101.79 1018.58Z" fill="#282D2E"/>
<path d="M1169.97 1018.58L1164.55 1013.16L1159.12 1018.58L1164.55 1024L1169.97 1018.58Z" fill="#282D2E"/>
<path d="M1238.15 1018.58L1232.73 1013.16L1227.31 1018.58L1232.73 1024L1238.15 1018.58Z" fill="#282D2E"/>
<path d="M692.694 -207.581L687.27 -213L681.846 -207.581L687.27 -202.162L692.694 -207.581Z" fill="#282D2E"/>
<path d="M760.878 -207.581L755.454 -213L750.03 -207.581L755.454 -202.162L760.878 -207.581Z" fill="#282D2E"/>
<path d="M829.061 -207.581L823.637 -213L818.213 -207.581L823.637 -202.162L829.061 -207.581Z" fill="#282D2E"/>
<path d="M897.245 -207.581L891.821 -213L886.397 -207.581L891.821 -202.162L897.245 -207.581Z" fill="#282D2E"/>
<path d="M965.429 -207.581L960.005 -213L954.581 -207.581L960.005 -202.162L965.429 -207.581Z" fill="#282D2E"/>
<path d="M1033.61 -207.581L1028.19 -213L1022.76 -207.581L1028.19 -202.162L1033.61 -207.581Z" fill="#282D2E"/>
<path d="M1101.8 -207.581L1096.37 -213L1090.95 -207.581L1096.37 -202.162L1101.8 -207.581Z" fill="#282D2E"/>
<path d="M1169.98 -207.581L1164.56 -213L1159.13 -207.581L1164.56 -202.162L1169.98 -207.581Z" fill="#282D2E"/>
<path d="M1238.16 -207.581L1232.74 -213L1227.32 -207.581L1232.74 -202.162L1238.16 -207.581Z" fill="#282D2E"/>
<path d="M1306.35 -207.581L1300.92 -213L1295.5 -207.581L1300.92 -202.162L1306.35 -207.581Z" fill="#282D2E"/>
<path d="M1374.53 -207.581L1369.11 -213L1363.68 -207.581L1369.11 -202.162L1374.53 -207.581Z" fill="#282D2E"/>
<path d="M1442.71 -207.581L1437.29 -213L1431.87 -207.581L1437.29 -202.162L1442.71 -207.581Z" fill="#282D2E"/>
<path d="M1510.9 -207.581L1505.47 -213L1500.05 -207.581L1505.47 -202.162L1510.9 -207.581Z" fill="#282D2E"/>
<path d="M1579.08 -207.581L1573.66 -213L1568.23 -207.581L1573.66 -202.162L1579.08 -207.581Z" fill="#282D2E"/>
<path d="M1647.27 -207.581L1641.84 -213L1636.42 -207.581L1641.84 -202.162L1647.27 -207.581Z" fill="#282D2E"/>
<path d="M1715.45 -207.581L1710.03 -213L1704.6 -207.581L1710.03 -202.162L1715.45 -207.581Z" fill="#282D2E"/>
<path d="M1783.63 -207.581L1778.21 -213L1772.78 -207.581L1778.21 -202.162L1783.63 -207.581Z" fill="#282D2E"/>
<path d="M1851.82 -207.581L1846.39 -213L1840.97 -207.581L1846.39 -202.162L1851.82 -207.581Z" fill="#282D2E"/>
<path d="M1920 -207.581L1914.58 -213L1909.15 -207.581L1914.58 -202.162L1920 -207.581Z" fill="#282D2E"/>
<path d="M692.694 -139.461L687.27 -144.88L681.846 -139.461L687.27 -134.042L692.694 -139.461Z" fill="#282D2E"/>
<path d="M760.878 -139.461L755.454 -144.88L750.03 -139.461L755.454 -134.042L760.878 -139.461Z" fill="#282D2E"/>
<path d="M829.061 -139.461L823.637 -144.88L818.213 -139.461L823.637 -134.042L829.061 -139.461Z" fill="#282D2E"/>
<path d="M897.245 -139.461L891.821 -144.88L886.397 -139.461L891.821 -134.042L897.245 -139.461Z" fill="#282D2E"/>
<path d="M965.429 -139.461L960.005 -144.88L954.581 -139.461L960.005 -134.042L965.429 -139.461Z" fill="#282D2E"/>
<path d="M1033.61 -139.461L1028.19 -144.88L1022.76 -139.461L1028.19 -134.042L1033.61 -139.461Z" fill="#282D2E"/>
<path d="M1101.8 -139.461L1096.37 -144.88L1090.95 -139.461L1096.37 -134.042L1101.8 -139.461Z" fill="#282D2E"/>
<path d="M1169.98 -139.461L1164.56 -144.88L1159.13 -139.461L1164.56 -134.042L1169.98 -139.461Z" fill="#282D2E"/>
<path d="M1238.16 -139.461L1232.74 -144.88L1227.32 -139.461L1232.74 -134.042L1238.16 -139.461Z" fill="#282D2E"/>
<path d="M1306.35 -139.461L1300.92 -144.88L1295.5 -139.461L1300.92 -134.042L1306.35 -139.461Z" fill="#282D2E"/>
<path d="M1374.53 -139.461L1369.11 -144.88L1363.68 -139.461L1369.11 -134.042L1374.53 -139.461Z" fill="#282D2E"/>
<path d="M1442.71 -139.461L1437.29 -144.88L1431.87 -139.461L1437.29 -134.042L1442.71 -139.461Z" fill="#282D2E"/>
<path d="M1510.9 -139.461L1505.47 -144.88L1500.05 -139.461L1505.47 -134.042L1510.9 -139.461Z" fill="#282D2E"/>
<path d="M1579.08 -139.461L1573.66 -144.88L1568.23 -139.461L1573.66 -134.042L1579.08 -139.461Z" fill="#282D2E"/>
<path d="M1647.27 -139.461L1641.84 -144.88L1636.42 -139.461L1641.84 -134.042L1647.27 -139.461Z" fill="#282D2E"/>
<path d="M1715.45 -139.461L1710.03 -144.88L1704.6 -139.461L1710.03 -134.042L1715.45 -139.461Z" fill="#282D2E"/>
<path d="M1783.63 -139.461L1778.21 -144.88L1772.78 -139.461L1778.21 -134.042L1783.63 -139.461Z" fill="#282D2E"/>
<path d="M1851.82 -139.461L1846.39 -144.88L1840.97 -139.461L1846.39 -134.042L1851.82 -139.461Z" fill="#282D2E"/>
<path d="M1920 -139.461L1914.58 -144.88L1909.15 -139.461L1914.58 -134.042L1920 -139.461Z" fill="#282D2E"/>
<path d="M692.694 -71.3404L687.27 -76.7593L681.846 -71.3404L687.27 -65.9215L692.694 -71.3404Z" fill="#282D2E"/>
<path d="M760.878 -71.3404L755.454 -76.7593L750.03 -71.3404L755.454 -65.9215L760.878 -71.3404Z" fill="#282D2E"/>
<path d="M829.061 -71.3404L823.637 -76.7593L818.213 -71.3404L823.637 -65.9215L829.061 -71.3404Z" fill="#282D2E"/>
<path d="M897.245 -71.3404L891.821 -76.7593L886.397 -71.3404L891.821 -65.9215L897.245 -71.3404Z" fill="#282D2E"/>
<path d="M965.429 -71.3404L960.005 -76.7593L954.581 -71.3404L960.005 -65.9215L965.429 -71.3404Z" fill="#282D2E"/>
<path d="M1033.61 -71.3404L1028.19 -76.7593L1022.76 -71.3404L1028.19 -65.9215L1033.61 -71.3404Z" fill="#282D2E"/>
<path d="M1101.8 -71.3404L1096.37 -76.7593L1090.95 -71.3404L1096.37 -65.9215L1101.8 -71.3404Z" fill="#282D2E"/>
<path d="M1169.98 -71.3404L1164.56 -76.7593L1159.13 -71.3404L1164.56 -65.9215L1169.98 -71.3404Z" fill="#282D2E"/>
<path d="M1238.16 -71.3404L1232.74 -76.7593L1227.32 -71.3404L1232.74 -65.9215L1238.16 -71.3404Z" fill="#282D2E"/>
<path d="M1306.35 -71.3404L1300.92 -76.7593L1295.5 -71.3404L1300.92 -65.9215L1306.35 -71.3404Z" fill="#282D2E"/>
<path d="M1374.53 -71.3404L1369.11 -76.7593L1363.68 -71.3404L1369.11 -65.9215L1374.53 -71.3404Z" fill="#282D2E"/>
<path d="M1442.71 -71.3404L1437.29 -76.7593L1431.87 -71.3404L1437.29 -65.9215L1442.71 -71.3404Z" fill="#282D2E"/>
<path d="M1510.9 -71.3404L1505.47 -76.7593L1500.05 -71.3404L1505.47 -65.9215L1510.9 -71.3404Z" fill="#282D2E"/>
<path d="M1579.08 -71.3404L1573.66 -76.7593L1568.23 -71.3404L1573.66 -65.9215L1579.08 -71.3404Z" fill="#282D2E"/>
<path d="M1647.27 -71.3404L1641.84 -76.7593L1636.42 -71.3404L1641.84 -65.9215L1647.27 -71.3404Z" fill="#282D2E"/>
<path d="M1715.45 -71.3404L1710.03 -76.7593L1704.6 -71.3404L1710.03 -65.9215L1715.45 -71.3404Z" fill="#282D2E"/>
<path d="M1783.63 -71.3404L1778.21 -76.7593L1772.78 -71.3404L1778.21 -65.9215L1783.63 -71.3404Z" fill="#282D2E"/>
<path d="M1851.82 -71.3404L1846.39 -76.7593L1840.97 -71.3404L1846.39 -65.9215L1851.82 -71.3404Z" fill="#282D2E"/>
<path d="M1920 -71.3404L1914.58 -76.7593L1909.15 -71.3404L1914.58 -65.9215L1920 -71.3404Z" fill="#282D2E"/>
<path d="M692.694 -3.22006L687.27 -8.63899L681.846 -3.22006L687.27 2.19884L692.694 -3.22006Z" fill="#282D2E"/>
<path d="M760.878 -3.22006L755.454 -8.63899L750.03 -3.22006L755.454 2.19884L760.878 -3.22006Z" fill="#282D2E"/>
<path d="M829.061 -3.22006L823.637 -8.63899L818.213 -3.22006L823.637 2.19884L829.061 -3.22006Z" fill="#282D2E"/>
<path d="M897.245 -3.22006L891.821 -8.63899L886.397 -3.22006L891.821 2.19884L897.245 -3.22006Z" fill="#282D2E"/>
<path d="M965.429 -3.22006L960.005 -8.63899L954.581 -3.22006L960.005 2.19884L965.429 -3.22006Z" fill="#282D2E"/>
<path d="M1033.61 -3.22006L1028.19 -8.63899L1022.76 -3.22006L1028.19 2.19884L1033.61 -3.22006Z" fill="#282D2E"/>
<path d="M1101.8 -3.22006L1096.37 -8.63899L1090.95 -3.22006L1096.37 2.19884L1101.8 -3.22006Z" fill="#282D2E"/>
<path d="M1169.98 -3.22006L1164.56 -8.63899L1159.13 -3.22006L1164.56 2.19884L1169.98 -3.22006Z" fill="#282D2E"/>
<path d="M1238.16 -3.22006L1232.74 -8.63899L1227.32 -3.22006L1232.74 2.19884L1238.16 -3.22006Z" fill="#282D2E"/>
<path d="M1306.35 -3.22006L1300.92 -8.63899L1295.5 -3.22006L1300.92 2.19884L1306.35 -3.22006Z" fill="#282D2E"/>
<path d="M1374.53 -3.22006L1369.11 -8.63899L1363.68 -3.22006L1369.11 2.19884L1374.53 -3.22006Z" fill="#282D2E"/>
<path d="M1442.71 -3.22006L1437.29 -8.63899L1431.87 -3.22006L1437.29 2.19884L1442.71 -3.22006Z" fill="#282D2E"/>
<path d="M1510.9 -3.22006L1505.47 -8.63899L1500.05 -3.22006L1505.47 2.19884L1510.9 -3.22006Z" fill="#282D2E"/>
<path d="M1579.08 -3.22006L1573.66 -8.63899L1568.23 -3.22006L1573.66 2.19884L1579.08 -3.22006Z" fill="#282D2E"/>
<path d="M1647.27 -3.22006L1641.84 -8.63899L1636.42 -3.22006L1641.84 2.19884L1647.27 -3.22006Z" fill="#282D2E"/>
<path d="M1715.45 -3.22006L1710.03 -8.63899L1704.6 -3.22006L1710.03 2.19884L1715.45 -3.22006Z" fill="#282D2E"/>
<path d="M1783.63 -3.22006L1778.21 -8.63899L1772.78 -3.22006L1778.21 2.19884L1783.63 -3.22006Z" fill="#282D2E"/>
<path d="M1851.82 -3.22006L1846.39 -8.63899L1840.97 -3.22006L1846.39 2.19884L1851.82 -3.22006Z" fill="#282D2E"/>
<path d="M1920 -3.22006L1914.58 -8.63899L1909.15 -3.22006L1914.58 2.19884L1920 -3.22006Z" fill="#282D2E"/>
<path d="M692.694 64.8995L687.27 59.4806L681.846 64.8995L687.27 70.3184L692.694 64.8995Z" fill="#282D2E"/>
<path d="M760.878 64.8995L755.454 59.4806L750.03 64.8995L755.454 70.3184L760.878 64.8995Z" fill="#282D2E"/>
<path d="M829.061 64.8995L823.637 59.4806L818.213 64.8995L823.637 70.3184L829.061 64.8995Z" fill="#282D2E"/>
<path d="M897.245 64.8995L891.821 59.4806L886.397 64.8995L891.821 70.3184L897.245 64.8995Z" fill="#282D2E"/>
<path d="M965.429 64.8995L960.005 59.4806L954.581 64.8995L960.005 70.3184L965.429 64.8995Z" fill="#282D2E"/>
<path d="M1033.61 64.8995L1028.19 59.4806L1022.76 64.8995L1028.19 70.3184L1033.61 64.8995Z" fill="#282D2E"/>
<path d="M1101.8 64.8995L1096.37 59.4806L1090.95 64.8995L1096.37 70.3184L1101.8 64.8995Z" fill="#282D2E"/>
<path d="M1169.98 64.8995L1164.56 59.4806L1159.13 64.8995L1164.56 70.3184L1169.98 64.8995Z" fill="#282D2E"/>
<path d="M1238.16 64.8995L1232.74 59.4806L1227.32 64.8995L1232.74 70.3184L1238.16 64.8995Z" fill="#282D2E"/>
<path d="M1306.35 64.8995L1300.92 59.4806L1295.5 64.8995L1300.92 70.3184L1306.35 64.8995Z" fill="#282D2E"/>
<path d="M1374.53 64.8995L1369.11 59.4806L1363.68 64.8995L1369.11 70.3184L1374.53 64.8995Z" fill="#282D2E"/>
<path d="M1442.71 64.8995L1437.29 59.4806L1431.87 64.8995L1437.29 70.3184L1442.71 64.8995Z" fill="#282D2E"/>
<path d="M1510.9 64.8995L1505.47 59.4806L1500.05 64.8995L1505.47 70.3184L1510.9 64.8995Z" fill="#282D2E"/>
<path d="M1579.08 64.8995L1573.66 59.4806L1568.23 64.8995L1573.66 70.3184L1579.08 64.8995Z" fill="#282D2E"/>
<path d="M1647.27 64.8995L1641.84 59.4806L1636.42 64.8995L1641.84 70.3184L1647.27 64.8995Z" fill="#282D2E"/>
<path d="M1715.45 64.8995L1710.03 59.4806L1704.6 64.8995L1710.03 70.3184L1715.45 64.8995Z" fill="#282D2E"/>
<path d="M1783.63 64.8995L1778.21 59.4806L1772.78 64.8995L1778.21 70.3184L1783.63 64.8995Z" fill="#282D2E"/>
<path d="M1851.82 64.8995L1846.39 59.4806L1840.97 64.8995L1846.39 70.3184L1851.82 64.8995Z" fill="#282D2E"/>
<path d="M1920 64.8995L1914.58 59.4806L1909.15 64.8995L1914.58 70.3184L1920 64.8995Z" fill="#282D2E"/>
<path d="M692.694 133.02L687.27 127.601L681.846 133.02L687.27 138.439L692.694 133.02Z" fill="#282D2E"/>
<path d="M760.878 133.02L755.454 127.601L750.03 133.02L755.454 138.439L760.878 133.02Z" fill="#282D2E"/>
<path d="M829.061 133.02L823.637 127.601L818.213 133.02L823.637 138.439L829.061 133.02Z" fill="#282D2E"/>
<path d="M897.245 133.02L891.821 127.601L886.397 133.02L891.821 138.439L897.245 133.02Z" fill="#282D2E"/>
<path d="M965.429 133.02L960.005 127.601L954.581 133.02L960.005 138.439L965.429 133.02Z" fill="#282D2E"/>
<path d="M1033.61 133.02L1028.19 127.601L1022.76 133.02L1028.19 138.439L1033.61 133.02Z" fill="#282D2E"/>
<path d="M1101.8 133.02L1096.37 127.601L1090.95 133.02L1096.37 138.439L1101.8 133.02Z" fill="#282D2E"/>
<path d="M1169.98 133.02L1164.56 127.601L1159.13 133.02L1164.56 138.439L1169.98 133.02Z" fill="#282D2E"/>
<path d="M1238.16 133.02L1232.74 127.601L1227.32 133.02L1232.74 138.439L1238.16 133.02Z" fill="#282D2E"/>
<path d="M1306.35 133.02L1300.92 127.601L1295.5 133.02L1300.92 138.439L1306.35 133.02Z" fill="#282D2E"/>
<path d="M1374.53 133.02L1369.11 127.601L1363.68 133.02L1369.11 138.439L1374.53 133.02Z" fill="#282D2E"/>
<path d="M1442.71 133.02L1437.29 127.601L1431.87 133.02L1437.29 138.439L1442.71 133.02Z" fill="#282D2E"/>
<path d="M1510.9 133.02L1505.47 127.601L1500.05 133.02L1505.47 138.439L1510.9 133.02Z" fill="#282D2E"/>
<path d="M1579.08 133.02L1573.66 127.601L1568.23 133.02L1573.66 138.439L1579.08 133.02Z" fill="#282D2E"/>
<path d="M1647.27 133.02L1641.84 127.601L1636.42 133.02L1641.84 138.439L1647.27 133.02Z" fill="#282D2E"/>
<path d="M1715.45 133.02L1710.03 127.601L1704.6 133.02L1710.03 138.439L1715.45 133.02Z" fill="#282D2E"/>
<path d="M1783.63 133.02L1778.21 127.601L1772.78 133.02L1778.21 138.439L1783.63 133.02Z" fill="#282D2E"/>
<path d="M1851.82 133.02L1846.39 127.601L1840.97 133.02L1846.39 138.439L1851.82 133.02Z" fill="#282D2E"/>
<path d="M1920 133.02L1914.58 127.601L1909.15 133.02L1914.58 138.439L1920 133.02Z" fill="#282D2E"/>
<path d="M692.694 201.14L687.27 195.721L681.846 201.14L687.27 206.559L692.694 201.14Z" fill="#282D2E"/>
<path d="M760.878 201.14L755.454 195.721L750.03 201.14L755.454 206.559L760.878 201.14Z" fill="#282D2E"/>
<path d="M829.061 201.14L823.637 195.721L818.213 201.14L823.637 206.559L829.061 201.14Z" fill="#282D2E"/>
<path d="M897.245 201.14L891.821 195.721L886.397 201.14L891.821 206.559L897.245 201.14Z" fill="#282D2E"/>
<path d="M965.429 201.14L960.005 195.721L954.581 201.14L960.005 206.559L965.429 201.14Z" fill="#282D2E"/>
<path d="M1033.61 201.14L1028.19 195.721L1022.76 201.14L1028.19 206.559L1033.61 201.14Z" fill="#282D2E"/>
<path d="M1101.8 201.14L1096.37 195.721L1090.95 201.14L1096.37 206.559L1101.8 201.14Z" fill="#282D2E"/>
<path d="M1169.98 201.14L1164.56 195.721L1159.13 201.14L1164.56 206.559L1169.98 201.14Z" fill="#282D2E"/>
<path d="M1238.16 201.14L1232.74 195.721L1227.32 201.14L1232.74 206.559L1238.16 201.14Z" fill="#282D2E"/>
<path d="M1306.35 201.14L1300.92 195.721L1295.5 201.14L1300.92 206.559L1306.35 201.14Z" fill="#282D2E"/>
<path d="M1374.53 201.14L1369.11 195.721L1363.68 201.14L1369.11 206.559L1374.53 201.14Z" fill="#282D2E"/>
<path d="M1442.71 201.14L1437.29 195.721L1431.87 201.14L1437.29 206.559L1442.71 201.14Z" fill="#282D2E"/>
<path d="M1510.9 201.14L1505.47 195.721L1500.05 201.14L1505.47 206.559L1510.9 201.14Z" fill="#282D2E"/>
<path d="M1579.08 201.14L1573.66 195.721L1568.23 201.14L1573.66 206.559L1579.08 201.14Z" fill="#282D2E"/>
<path d="M1647.27 201.14L1641.84 195.721L1636.42 201.14L1641.84 206.559L1647.27 201.14Z" fill="#282D2E"/>
<path d="M1715.45 201.14L1710.03 195.721L1704.6 201.14L1710.03 206.559L1715.45 201.14Z" fill="#282D2E"/>
<path d="M1783.63 201.14L1778.21 195.721L1772.78 201.14L1778.21 206.559L1783.63 201.14Z" fill="#282D2E"/>
<path d="M1851.82 201.14L1846.39 195.721L1840.97 201.14L1846.39 206.559L1851.82 201.14Z" fill="#282D2E"/>
<path d="M1920 201.14L1914.58 195.721L1909.15 201.14L1914.58 206.559L1920 201.14Z" fill="#282D2E"/>
<path d="M692.694 269.259L687.27 263.84L681.846 269.259L687.27 274.678L692.694 269.259Z" fill="#282D2E"/>
<path d="M760.878 269.259L755.454 263.84L750.03 269.259L755.454 274.678L760.878 269.259Z" fill="#282D2E"/>
<path d="M829.061 269.259L823.637 263.84L818.213 269.259L823.637 274.678L829.061 269.259Z" fill="#282D2E"/>
<path d="M897.245 269.259L891.821 263.84L886.397 269.259L891.821 274.678L897.245 269.259Z" fill="#282D2E"/>
<path d="M965.429 269.259L960.005 263.84L954.581 269.259L960.005 274.678L965.429 269.259Z" fill="#282D2E"/>
<path d="M1033.61 269.259L1028.19 263.84L1022.76 269.259L1028.19 274.678L1033.61 269.259Z" fill="#282D2E"/>
<path d="M1101.8 269.259L1096.37 263.84L1090.95 269.259L1096.37 274.678L1101.8 269.259Z" fill="#282D2E"/>
<path d="M1169.98 269.259L1164.56 263.84L1159.13 269.259L1164.56 274.678L1169.98 269.259Z" fill="#282D2E"/>
<path d="M1238.16 269.259L1232.74 263.84L1227.32 269.259L1232.74 274.678L1238.16 269.259Z" fill="#282D2E"/>
<path d="M1306.35 269.259L1300.92 263.84L1295.5 269.259L1300.92 274.678L1306.35 269.259Z" fill="#282D2E"/>
<path d="M1374.53 269.259L1369.11 263.84L1363.68 269.259L1369.11 274.678L1374.53 269.259Z" fill="#282D2E"/>
<path d="M1442.71 269.259L1437.29 263.84L1431.87 269.259L1437.29 274.678L1442.71 269.259Z" fill="#282D2E"/>
<path d="M1510.9 269.259L1505.47 263.84L1500.05 269.259L1505.47 274.678L1510.9 269.259Z" fill="#282D2E"/>
<path d="M1579.08 269.259L1573.66 263.84L1568.23 269.259L1573.66 274.678L1579.08 269.259Z" fill="#282D2E"/>
<path d="M1647.27 269.259L1641.84 263.84L1636.42 269.259L1641.84 274.678L1647.27 269.259Z" fill="#282D2E"/>
<path d="M1715.45 269.259L1710.03 263.84L1704.6 269.259L1710.03 274.678L1715.45 269.259Z" fill="#282D2E"/>
<path d="M1783.63 269.259L1778.21 263.84L1772.78 269.259L1778.21 274.678L1783.63 269.259Z" fill="#282D2E"/>
<path d="M1851.82 269.259L1846.39 263.84L1840.97 269.259L1846.39 274.678L1851.82 269.259Z" fill="#282D2E"/>
<path d="M1920 269.259L1914.58 263.84L1909.15 269.259L1914.58 274.678L1920 269.259Z" fill="#282D2E"/>
<path d="M692.694 337.38L687.27 331.961L681.846 337.38L687.27 342.799L692.694 337.38Z" fill="#282D2E"/>
<path d="M760.878 337.38L755.454 331.961L750.03 337.38L755.454 342.799L760.878 337.38Z" fill="#282D2E"/>
<path d="M829.061 337.38L823.637 331.961L818.213 337.38L823.637 342.799L829.061 337.38Z" fill="#282D2E"/>
<path d="M897.245 337.38L891.821 331.961L886.397 337.38L891.821 342.799L897.245 337.38Z" fill="#282D2E"/>
<path d="M965.429 337.38L960.005 331.961L954.581 337.38L960.005 342.799L965.429 337.38Z" fill="#282D2E"/>
<path d="M1033.61 337.38L1028.19 331.961L1022.76 337.38L1028.19 342.799L1033.61 337.38Z" fill="#282D2E"/>
<path d="M1101.8 337.38L1096.37 331.961L1090.95 337.38L1096.37 342.799L1101.8 337.38Z" fill="#282D2E"/>
<path d="M1169.98 337.38L1164.56 331.961L1159.13 337.38L1164.56 342.799L1169.98 337.38Z" fill="#282D2E"/>
<path d="M1238.16 337.38L1232.74 331.961L1227.32 337.38L1232.74 342.799L1238.16 337.38Z" fill="#282D2E"/>
<path d="M1306.35 337.38L1300.92 331.961L1295.5 337.38L1300.92 342.799L1306.35 337.38Z" fill="#282D2E"/>
<path d="M1374.53 337.38L1369.11 331.961L1363.68 337.38L1369.11 342.799L1374.53 337.38Z" fill="#282D2E"/>
<path d="M1442.71 337.38L1437.29 331.961L1431.87 337.38L1437.29 342.799L1442.71 337.38Z" fill="#282D2E"/>
<path d="M1510.9 337.38L1505.47 331.961L1500.05 337.38L1505.47 342.799L1510.9 337.38Z" fill="#282D2E"/>
<path d="M1579.08 337.38L1573.66 331.961L1568.23 337.38L1573.66 342.799L1579.08 337.38Z" fill="#282D2E"/>
<path d="M1647.27 337.38L1641.84 331.961L1636.42 337.38L1641.84 342.799L1647.27 337.38Z" fill="#282D2E"/>
<path d="M1715.45 337.38L1710.03 331.961L1704.6 337.38L1710.03 342.799L1715.45 337.38Z" fill="#282D2E"/>
<path d="M1783.63 337.38L1778.21 331.961L1772.78 337.38L1778.21 342.799L1783.63 337.38Z" fill="#282D2E"/>
<path d="M1851.82 337.38L1846.39 331.961L1840.97 337.38L1846.39 342.799L1851.82 337.38Z" fill="#282D2E"/>
<path d="M1920 337.38L1914.58 331.961L1909.15 337.38L1914.58 342.799L1920 337.38Z" fill="#282D2E"/>
<path d="M692.694 405.5L687.27 400.081L681.846 405.5L687.27 410.919L692.694 405.5Z" fill="#282D2E"/>
<path d="M760.878 405.5L755.454 400.081L750.03 405.5L755.454 410.919L760.878 405.5Z" fill="#282D2E"/>
<path d="M829.061 405.5L823.637 400.081L818.213 405.5L823.637 410.919L829.061 405.5Z" fill="#282D2E"/>
<path d="M897.245 405.5L891.821 400.081L886.397 405.5L891.821 410.919L897.245 405.5Z" fill="#282D2E"/>
<path d="M965.429 405.5L960.005 400.081L954.581 405.5L960.005 410.919L965.429 405.5Z" fill="#282D2E"/>
<path d="M1033.61 405.5L1028.19 400.081L1022.76 405.5L1028.19 410.919L1033.61 405.5Z" fill="#282D2E"/>
<path d="M1101.8 405.5L1096.37 400.081L1090.95 405.5L1096.37 410.919L1101.8 405.5Z" fill="#282D2E"/>
<path d="M1169.98 405.5L1164.56 400.081L1159.13 405.5L1164.56 410.919L1169.98 405.5Z" fill="#282D2E"/>
<path d="M1238.16 405.5L1232.74 400.081L1227.32 405.5L1232.74 410.919L1238.16 405.5Z" fill="#282D2E"/>
<path d="M1306.35 405.5L1300.92 400.081L1295.5 405.5L1300.92 410.919L1306.35 405.5Z" fill="#282D2E"/>
<path d="M1374.53 405.5L1369.11 400.081L1363.68 405.5L1369.11 410.919L1374.53 405.5Z" fill="#282D2E"/>
<path d="M1442.71 405.5L1437.29 400.081L1431.87 405.5L1437.29 410.919L1442.71 405.5Z" fill="#282D2E"/>
<path d="M1510.9 405.5L1505.47 400.081L1500.05 405.5L1505.47 410.919L1510.9 405.5Z" fill="#282D2E"/>
<path d="M1579.08 405.5L1573.66 400.081L1568.23 405.5L1573.66 410.919L1579.08 405.5Z" fill="#282D2E"/>
<path d="M1647.27 405.5L1641.84 400.081L1636.42 405.5L1641.84 410.919L1647.27 405.5Z" fill="#282D2E"/>
<path d="M1715.45 405.5L1710.03 400.081L1704.6 405.5L1710.03 410.919L1715.45 405.5Z" fill="#282D2E"/>
<path d="M1783.63 405.5L1778.21 400.081L1772.78 405.5L1778.21 410.919L1783.63 405.5Z" fill="#282D2E"/>
<path d="M1851.82 405.5L1846.39 400.081L1840.97 405.5L1846.39 410.919L1851.82 405.5Z" fill="#282D2E"/>
<path d="M1920 405.5L1914.58 400.081L1909.15 405.5L1914.58 410.919L1920 405.5Z" fill="#282D2E"/>
<path d="M692.694 473.62L687.27 468.201L681.846 473.62L687.27 479.039L692.694 473.62Z" fill="#282D2E"/>
<path d="M760.878 473.62L755.454 468.201L750.03 473.62L755.454 479.039L760.878 473.62Z" fill="#282D2E"/>
<path d="M829.061 473.62L823.637 468.201L818.213 473.62L823.637 479.039L829.061 473.62Z" fill="#282D2E"/>
<path d="M897.245 473.62L891.821 468.201L886.397 473.62L891.821 479.039L897.245 473.62Z" fill="#282D2E"/>
<path d="M965.429 473.62L960.005 468.201L954.581 473.62L960.005 479.039L965.429 473.62Z" fill="#282D2E"/>
<path d="M1033.61 473.62L1028.19 468.201L1022.76 473.62L1028.19 479.039L1033.61 473.62Z" fill="#282D2E"/>
<path d="M1101.8 473.62L1096.37 468.201L1090.95 473.62L1096.37 479.039L1101.8 473.62Z" fill="#282D2E"/>
<path d="M1169.98 473.62L1164.56 468.201L1159.13 473.62L1164.56 479.039L1169.98 473.62Z" fill="#282D2E"/>
<path d="M1238.16 473.62L1232.74 468.201L1227.32 473.62L1232.74 479.039L1238.16 473.62Z" fill="#282D2E"/>
<path d="M1306.35 473.62L1300.92 468.201L1295.5 473.62L1300.92 479.039L1306.35 473.62Z" fill="#282D2E"/>
<path d="M1374.53 473.62L1369.11 468.201L1363.68 473.62L1369.11 479.039L1374.53 473.62Z" fill="#282D2E"/>
<path d="M1442.71 473.62L1437.29 468.201L1431.87 473.62L1437.29 479.039L1442.71 473.62Z" fill="#282D2E"/>
<path d="M1510.9 473.62L1505.47 468.201L1500.05 473.62L1505.47 479.039L1510.9 473.62Z" fill="#282D2E"/>
<path d="M1579.08 473.62L1573.66 468.201L1568.23 473.62L1573.66 479.039L1579.08 473.62Z" fill="#282D2E"/>
<path d="M1647.27 473.62L1641.84 468.201L1636.42 473.62L1641.84 479.039L1647.27 473.62Z" fill="#282D2E"/>
<path d="M1715.45 473.62L1710.03 468.201L1704.6 473.62L1710.03 479.039L1715.45 473.62Z" fill="#282D2E"/>
<path d="M1783.63 473.62L1778.21 468.201L1772.78 473.62L1778.21 479.039L1783.63 473.62Z" fill="#282D2E"/>
<path d="M1851.82 473.62L1846.39 468.201L1840.97 473.62L1846.39 479.039L1851.82 473.62Z" fill="#282D2E"/>
<path d="M1920 473.62L1914.58 468.201L1909.15 473.62L1914.58 479.039L1920 473.62Z" fill="#282D2E"/>
<path d="M692.694 541.739L687.27 536.32L681.846 541.739L687.27 547.158L692.694 541.739Z" fill="#282D2E"/>
<path d="M760.878 541.739L755.454 536.32L750.03 541.739L755.454 547.158L760.878 541.739Z" fill="#282D2E"/>
<path d="M829.061 541.739L823.637 536.32L818.213 541.739L823.637 547.158L829.061 541.739Z" fill="#282D2E"/>
<path d="M897.245 541.739L891.821 536.32L886.397 541.739L891.821 547.158L897.245 541.739Z" fill="#282D2E"/>
<path d="M965.429 541.739L960.005 536.32L954.581 541.739L960.005 547.158L965.429 541.739Z" fill="#282D2E"/>
<path d="M1033.61 541.739L1028.19 536.32L1022.76 541.739L1028.19 547.158L1033.61 541.739Z" fill="#282D2E"/>
<path d="M1101.8 541.739L1096.37 536.32L1090.95 541.739L1096.37 547.158L1101.8 541.739Z" fill="#282D2E"/>
<path d="M1169.98 541.739L1164.56 536.32L1159.13 541.739L1164.56 547.158L1169.98 541.739Z" fill="#282D2E"/>
<path d="M1238.16 541.739L1232.74 536.32L1227.32 541.739L1232.74 547.158L1238.16 541.739Z" fill="#282D2E"/>
<path d="M1306.35 541.739L1300.92 536.32L1295.5 541.739L1300.92 547.158L1306.35 541.739Z" fill="#282D2E"/>
<path d="M1374.53 541.739L1369.11 536.32L1363.68 541.739L1369.11 547.158L1374.53 541.739Z" fill="#282D2E"/>
<path d="M1442.71 541.739L1437.29 536.32L1431.87 541.739L1437.29 547.158L1442.71 541.739Z" fill="#282D2E"/>
<path d="M1510.9 541.739L1505.47 536.32L1500.05 541.739L1505.47 547.158L1510.9 541.739Z" fill="#282D2E"/>
<path d="M1579.08 541.739L1573.66 536.32L1568.23 541.739L1573.66 547.158L1579.08 541.739Z" fill="#282D2E"/>
<path d="M1647.27 541.739L1641.84 536.32L1636.42 541.739L1641.84 547.158L1647.27 541.739Z" fill="#282D2E"/>
<path d="M1715.45 541.739L1710.03 536.32L1704.6 541.739L1710.03 547.158L1715.45 541.739Z" fill="#282D2E"/>
<path d="M1783.63 541.739L1778.21 536.32L1772.78 541.739L1778.21 547.158L1783.63 541.739Z" fill="#282D2E"/>
<path d="M1851.82 541.739L1846.39 536.32L1840.97 541.739L1846.39 547.158L1851.82 541.739Z" fill="#282D2E"/>
<path d="M1920 541.739L1914.58 536.32L1909.15 541.739L1914.58 547.158L1920 541.739Z" fill="#282D2E"/>
<path d="M692.694 609.861L687.27 604.442L681.846 609.861L687.27 615.28L692.694 609.861Z" fill="#282D2E"/>
<path d="M760.878 609.861L755.454 604.442L750.03 609.861L755.454 615.28L760.878 609.861Z" fill="#282D2E"/>
<path d="M829.061 609.861L823.637 604.442L818.213 609.861L823.637 615.28L829.061 609.861Z" fill="#282D2E"/>
<path d="M897.245 609.861L891.821 604.442L886.397 609.861L891.821 615.28L897.245 609.861Z" fill="#282D2E"/>
<path d="M965.429 609.861L960.005 604.442L954.581 609.861L960.005 615.28L965.429 609.861Z" fill="#282D2E"/>
<path d="M1033.61 609.861L1028.19 604.442L1022.76 609.861L1028.19 615.28L1033.61 609.861Z" fill="#282D2E"/>
<path d="M1101.8 609.861L1096.37 604.442L1090.95 609.861L1096.37 615.28L1101.8 609.861Z" fill="#282D2E"/>
<path d="M1169.98 609.861L1164.56 604.442L1159.13 609.861L1164.56 615.28L1169.98 609.861Z" fill="#282D2E"/>
<path d="M1238.16 609.861L1232.74 604.442L1227.32 609.861L1232.74 615.28L1238.16 609.861Z" fill="#282D2E"/>
<path d="M1306.35 609.861L1300.92 604.442L1295.5 609.861L1300.92 615.28L1306.35 609.861Z" fill="#282D2E"/>
<path d="M1374.53 609.861L1369.11 604.442L1363.68 609.861L1369.11 615.28L1374.53 609.861Z" fill="#282D2E"/>
<path d="M1442.71 609.861L1437.29 604.442L1431.87 609.861L1437.29 615.28L1442.71 609.861Z" fill="#282D2E"/>
<path d="M1510.9 609.861L1505.47 604.442L1500.05 609.861L1505.47 615.28L1510.9 609.861Z" fill="#282D2E"/>
<path d="M1579.08 609.861L1573.66 604.442L1568.23 609.861L1573.66 615.28L1579.08 609.861Z" fill="#282D2E"/>
<path d="M1647.27 609.861L1641.84 604.442L1636.42 609.861L1641.84 615.28L1647.27 609.861Z" fill="#282D2E"/>
<path d="M1715.45 609.861L1710.03 604.442L1704.6 609.861L1710.03 615.28L1715.45 609.861Z" fill="#282D2E"/>
<path d="M1783.63 609.861L1778.21 604.442L1772.78 609.861L1778.21 615.28L1783.63 609.861Z" fill="#282D2E"/>
<path d="M1851.82 609.861L1846.39 604.442L1840.97 609.861L1846.39 615.28L1851.82 609.861Z" fill="#282D2E"/>
<path d="M1920 609.861L1914.58 604.442L1909.15 609.861L1914.58 615.28L1920 609.861Z" fill="#282D2E"/>
<path d="M692.694 677.98L687.27 672.561L681.846 677.98L687.27 683.399L692.694 677.98Z" fill="#282D2E"/>
<path d="M760.878 677.98L755.454 672.561L750.03 677.98L755.454 683.399L760.878 677.98Z" fill="#282D2E"/>
<path d="M829.061 677.98L823.637 672.561L818.213 677.98L823.637 683.399L829.061 677.98Z" fill="#282D2E"/>
<path d="M897.245 677.98L891.821 672.561L886.397 677.98L891.821 683.399L897.245 677.98Z" fill="#282D2E"/>
<path d="M965.429 677.98L960.005 672.561L954.581 677.98L960.005 683.399L965.429 677.98Z" fill="#282D2E"/>
<path d="M1033.61 677.98L1028.19 672.561L1022.76 677.98L1028.19 683.399L1033.61 677.98Z" fill="#282D2E"/>
<path d="M1101.8 677.98L1096.37 672.561L1090.95 677.98L1096.37 683.399L1101.8 677.98Z" fill="#282D2E"/>
<path d="M1169.98 677.98L1164.56 672.561L1159.13 677.98L1164.56 683.399L1169.98 677.98Z" fill="#282D2E"/>
<path d="M1238.16 677.98L1232.74 672.561L1227.32 677.98L1232.74 683.399L1238.16 677.98Z" fill="#282D2E"/>
<path d="M1306.35 677.98L1300.92 672.561L1295.5 677.98L1300.92 683.399L1306.35 677.98Z" fill="#282D2E"/>
<path d="M1374.53 677.98L1369.11 672.561L1363.68 677.98L1369.11 683.399L1374.53 677.98Z" fill="#282D2E"/>
<path d="M1442.71 677.98L1437.29 672.561L1431.87 677.98L1437.29 683.399L1442.71 677.98Z" fill="#282D2E"/>
<path d="M1510.9 677.98L1505.47 672.561L1500.05 677.98L1505.47 683.399L1510.9 677.98Z" fill="#282D2E"/>
<path d="M1579.08 677.98L1573.66 672.561L1568.23 677.98L1573.66 683.399L1579.08 677.98Z" fill="#282D2E"/>
<path d="M1647.27 677.98L1641.84 672.561L1636.42 677.98L1641.84 683.399L1647.27 677.98Z" fill="#282D2E"/>
<path d="M1715.45 677.98L1710.03 672.561L1704.6 677.98L1710.03 683.399L1715.45 677.98Z" fill="#282D2E"/>
<path d="M1783.63 677.98L1778.21 672.561L1772.78 677.98L1778.21 683.399L1783.63 677.98Z" fill="#282D2E"/>
<path d="M1851.82 677.98L1846.39 672.561L1840.97 677.98L1846.39 683.399L1851.82 677.98Z" fill="#282D2E"/>
<path d="M1920 677.98L1914.58 672.561L1909.15 677.98L1914.58 683.399L1920 677.98Z" fill="#282D2E"/>
<path d="M692.694 746.1L687.27 740.681L681.846 746.1L687.27 751.518L692.694 746.1Z" fill="#282D2E"/>
<path d="M760.878 746.1L755.454 740.681L750.03 746.1L755.454 751.518L760.878 746.1Z" fill="#282D2E"/>
<path d="M829.061 746.1L823.637 740.681L818.213 746.1L823.637 751.518L829.061 746.1Z" fill="#282D2E"/>
<path d="M897.245 746.1L891.821 740.681L886.397 746.1L891.821 751.518L897.245 746.1Z" fill="#282D2E"/>
<path d="M965.429 746.1L960.005 740.681L954.581 746.1L960.005 751.518L965.429 746.1Z" fill="#282D2E"/>
<path d="M1033.61 746.1L1028.19 740.681L1022.76 746.1L1028.19 751.518L1033.61 746.1Z" fill="#282D2E"/>
<path d="M1101.8 746.1L1096.37 740.681L1090.95 746.1L1096.37 751.518L1101.8 746.1Z" fill="#282D2E"/>
<path d="M1169.98 746.1L1164.56 740.681L1159.13 746.1L1164.56 751.518L1169.98 746.1Z" fill="#282D2E"/>
<path d="M1238.16 746.1L1232.74 740.681L1227.32 746.1L1232.74 751.518L1238.16 746.1Z" fill="#282D2E"/>
<path d="M1306.35 746.1L1300.92 740.681L1295.5 746.1L1300.92 751.518L1306.35 746.1Z" fill="#282D2E"/>
<path d="M1374.53 746.1L1369.11 740.681L1363.68 746.1L1369.11 751.518L1374.53 746.1Z" fill="#282D2E"/>
<path d="M1442.71 746.1L1437.29 740.681L1431.87 746.1L1437.29 751.518L1442.71 746.1Z" fill="#282D2E"/>
<path d="M1510.9 746.1L1505.47 740.681L1500.05 746.1L1505.47 751.518L1510.9 746.1Z" fill="#282D2E"/>
<path d="M1579.08 746.1L1573.66 740.681L1568.23 746.1L1573.66 751.518L1579.08 746.1Z" fill="#282D2E"/>
<path d="M1647.27 746.1L1641.84 740.681L1636.42 746.1L1641.84 751.518L1647.27 746.1Z" fill="#282D2E"/>
<path d="M1715.45 746.1L1710.03 740.681L1704.6 746.1L1710.03 751.518L1715.45 746.1Z" fill="#282D2E"/>
<path d="M1783.63 746.1L1778.21 740.681L1772.78 746.1L1778.21 751.518L1783.63 746.1Z" fill="#282D2E"/>
<path d="M1851.82 746.1L1846.39 740.681L1840.97 746.1L1846.39 751.518L1851.82 746.1Z" fill="#282D2E"/>
<path d="M1920 746.1L1914.58 740.681L1909.15 746.1L1914.58 751.518L1920 746.1Z" fill="#282D2E"/>
<path d="M692.694 814.221L687.27 808.802L681.846 814.221L687.27 819.64L692.694 814.221Z" fill="#282D2E"/>
<path d="M760.878 814.221L755.454 808.802L750.03 814.221L755.454 819.64L760.878 814.221Z" fill="#282D2E"/>
<path d="M829.061 814.221L823.637 808.802L818.213 814.221L823.637 819.64L829.061 814.221Z" fill="#282D2E"/>
<path d="M897.245 814.221L891.821 808.802L886.397 814.221L891.821 819.64L897.245 814.221Z" fill="#282D2E"/>
<path d="M965.429 814.221L960.005 808.802L954.581 814.221L960.005 819.64L965.429 814.221Z" fill="#282D2E"/>
<path d="M1033.61 814.221L1028.19 808.802L1022.76 814.221L1028.19 819.64L1033.61 814.221Z" fill="#282D2E"/>
<path d="M1101.8 814.221L1096.37 808.802L1090.95 814.221L1096.37 819.64L1101.8 814.221Z" fill="#282D2E"/>
<path d="M1169.98 814.221L1164.56 808.802L1159.13 814.221L1164.56 819.64L1169.98 814.221Z" fill="#282D2E"/>
<path d="M1238.16 814.221L1232.74 808.802L1227.32 814.221L1232.74 819.64L1238.16 814.221Z" fill="#282D2E"/>
<path d="M1306.35 814.221L1300.92 808.802L1295.5 814.221L1300.92 819.64L1306.35 814.221Z" fill="#282D2E"/>
<path d="M1374.53 814.221L1369.11 808.802L1363.68 814.221L1369.11 819.64L1374.53 814.221Z" fill="#282D2E"/>
<path d="M1442.71 814.221L1437.29 808.802L1431.87 814.221L1437.29 819.64L1442.71 814.221Z" fill="#282D2E"/>
<path d="M1510.9 814.221L1505.47 808.802L1500.05 814.221L1505.47 819.64L1510.9 814.221Z" fill="#282D2E"/>
<path d="M1579.08 814.221L1573.66 808.802L1568.23 814.221L1573.66 819.64L1579.08 814.221Z" fill="#282D2E"/>
<path d="M1647.27 814.221L1641.84 808.802L1636.42 814.221L1641.84 819.64L1647.27 814.221Z" fill="#282D2E"/>
<path d="M1715.45 814.221L1710.03 808.802L1704.6 814.221L1710.03 819.64L1715.45 814.221Z" fill="#282D2E"/>
<path d="M1783.63 814.221L1778.21 808.802L1772.78 814.221L1778.21 819.64L1783.63 814.221Z" fill="#282D2E"/>
<path d="M1851.82 814.221L1846.39 808.802L1840.97 814.221L1846.39 819.64L1851.82 814.221Z" fill="#282D2E"/>
<path d="M1920 814.221L1914.58 808.802L1909.15 814.221L1914.58 819.64L1920 814.221Z" fill="#282D2E"/>
<path d="M692.694 882.34L687.27 876.921L681.846 882.34L687.27 887.759L692.694 882.34Z" fill="#282D2E"/>
<path d="M760.878 882.34L755.454 876.921L750.03 882.34L755.454 887.759L760.878 882.34Z" fill="#282D2E"/>
<path d="M829.061 882.34L823.637 876.921L818.213 882.34L823.637 887.759L829.061 882.34Z" fill="#282D2E"/>
<path d="M897.245 882.34L891.821 876.921L886.397 882.34L891.821 887.759L897.245 882.34Z" fill="#282D2E"/>
<path d="M965.429 882.34L960.005 876.921L954.581 882.34L960.005 887.759L965.429 882.34Z" fill="#282D2E"/>
<path d="M1033.61 882.34L1028.19 876.921L1022.76 882.34L1028.19 887.759L1033.61 882.34Z" fill="#282D2E"/>
<path d="M1101.8 882.34L1096.37 876.921L1090.95 882.34L1096.37 887.759L1101.8 882.34Z" fill="#282D2E"/>
<path d="M1169.98 882.34L1164.56 876.921L1159.13 882.34L1164.56 887.759L1169.98 882.34Z" fill="#282D2E"/>
<path d="M1238.16 882.34L1232.74 876.921L1227.32 882.34L1232.74 887.759L1238.16 882.34Z" fill="#282D2E"/>
<path d="M1306.35 882.34L1300.92 876.921L1295.5 882.34L1300.92 887.759L1306.35 882.34Z" fill="#282D2E"/>
<path d="M1374.53 882.34L1369.11 876.921L1363.68 882.34L1369.11 887.759L1374.53 882.34Z" fill="#282D2E"/>
<path d="M1442.71 882.34L1437.29 876.921L1431.87 882.34L1437.29 887.759L1442.71 882.34Z" fill="#282D2E"/>
<path d="M1510.9 882.34L1505.47 876.921L1500.05 882.34L1505.47 887.759L1510.9 882.34Z" fill="#282D2E"/>
<path d="M1579.08 882.34L1573.66 876.921L1568.23 882.34L1573.66 887.759L1579.08 882.34Z" fill="#282D2E"/>
<path d="M1647.27 882.34L1641.84 876.921L1636.42 882.34L1641.84 887.759L1647.27 882.34Z" fill="#282D2E"/>
<path d="M1715.45 882.34L1710.03 876.921L1704.6 882.34L1710.03 887.759L1715.45 882.34Z" fill="#282D2E"/>
<path d="M1783.63 882.34L1778.21 876.921L1772.78 882.34L1778.21 887.759L1783.63 882.34Z" fill="#282D2E"/>
<path d="M1851.82 882.34L1846.39 876.921L1840.97 882.34L1846.39 887.759L1851.82 882.34Z" fill="#282D2E"/>
<path d="M1920 882.34L1914.58 876.921L1909.15 882.34L1914.58 887.759L1920 882.34Z" fill="#282D2E"/>
<path d="M692.694 950.46L687.27 945.041L681.846 950.46L687.27 955.879L692.694 950.46Z" fill="#282D2E"/>
<path d="M760.878 950.46L755.454 945.041L750.03 950.46L755.454 955.879L760.878 950.46Z" fill="#282D2E"/>
<path d="M829.061 950.46L823.637 945.041L818.213 950.46L823.637 955.879L829.061 950.46Z" fill="#282D2E"/>
<path d="M897.245 950.46L891.821 945.041L886.397 950.46L891.821 955.879L897.245 950.46Z" fill="#282D2E"/>
<path d="M965.429 950.46L960.005 945.041L954.581 950.46L960.005 955.879L965.429 950.46Z" fill="#282D2E"/>
<path d="M1033.61 950.46L1028.19 945.041L1022.76 950.46L1028.19 955.879L1033.61 950.46Z" fill="#282D2E"/>
<path d="M1101.8 950.46L1096.37 945.041L1090.95 950.46L1096.37 955.879L1101.8 950.46Z" fill="#282D2E"/>
<path d="M1169.98 950.46L1164.56 945.041L1159.13 950.46L1164.56 955.879L1169.98 950.46Z" fill="#282D2E"/>
<path d="M1238.16 950.46L1232.74 945.041L1227.32 950.46L1232.74 955.879L1238.16 950.46Z" fill="#282D2E"/>
<path d="M1306.35 950.46L1300.92 945.041L1295.5 950.46L1300.92 955.879L1306.35 950.46Z" fill="#282D2E"/>
<path d="M1374.53 950.46L1369.11 945.041L1363.68 950.46L1369.11 955.879L1374.53 950.46Z" fill="#282D2E"/>
<path d="M1442.71 950.46L1437.29 945.041L1431.87 950.46L1437.29 955.879L1442.71 950.46Z" fill="#282D2E"/>
<path d="M1510.9 950.46L1505.47 945.041L1500.05 950.46L1505.47 955.879L1510.9 950.46Z" fill="#282D2E"/>
<path d="M1579.08 950.46L1573.66 945.041L1568.23 950.46L1573.66 955.879L1579.08 950.46Z" fill="#282D2E"/>
<path d="M1647.27 950.46L1641.84 945.041L1636.42 950.46L1641.84 955.879L1647.27 950.46Z" fill="#282D2E"/>
<path d="M1715.45 950.46L1710.03 945.041L1704.6 950.46L1710.03 955.879L1715.45 950.46Z" fill="#282D2E"/>
<path d="M1783.63 950.46L1778.21 945.041L1772.78 950.46L1778.21 955.879L1783.63 950.46Z" fill="#282D2E"/>
<path d="M1851.82 950.46L1846.39 945.041L1840.97 950.46L1846.39 955.879L1851.82 950.46Z" fill="#282D2E"/>
<path d="M1920 950.46L1914.58 945.041L1909.15 950.46L1914.58 955.879L1920 950.46Z" fill="#282D2E"/>
<path d="M692.694 1018.58L687.27 1013.16L681.846 1018.58L687.27 1024L692.694 1018.58Z" fill="#282D2E"/>
<path d="M760.878 1018.58L755.454 1013.16L750.03 1018.58L755.454 1024L760.878 1018.58Z" fill="#282D2E"/>
<path d="M829.061 1018.58L823.637 1013.16L818.213 1018.58L823.637 1024L829.061 1018.58Z" fill="#282D2E"/>
<path d="M897.245 1018.58L891.821 1013.16L886.397 1018.58L891.821 1024L897.245 1018.58Z" fill="#282D2E"/>
<path d="M965.429 1018.58L960.005 1013.16L954.581 1018.58L960.005 1024L965.429 1018.58Z" fill="#282D2E"/>
<path d="M1033.61 1018.58L1028.19 1013.16L1022.76 1018.58L1028.19 1024L1033.61 1018.58Z" fill="#282D2E"/>
<path d="M1101.8 1018.58L1096.37 1013.16L1090.95 1018.58L1096.37 1024L1101.8 1018.58Z" fill="#282D2E"/>
<path d="M1169.98 1018.58L1164.56 1013.16L1159.13 1018.58L1164.56 1024L1169.98 1018.58Z" fill="#282D2E"/>
<path d="M1238.16 1018.58L1232.74 1013.16L1227.32 1018.58L1232.74 1024L1238.16 1018.58Z" fill="#282D2E"/>
<path d="M1306.35 1018.58L1300.92 1013.16L1295.5 1018.58L1300.92 1024L1306.35 1018.58Z" fill="#282D2E"/>
<path d="M1374.53 1018.58L1369.11 1013.16L1363.68 1018.58L1369.11 1024L1374.53 1018.58Z" fill="#282D2E"/>
<path d="M1442.71 1018.58L1437.29 1013.16L1431.87 1018.58L1437.29 1024L1442.71 1018.58Z" fill="#282D2E"/>
<path d="M1510.9 1018.58L1505.47 1013.16L1500.05 1018.58L1505.47 1024L1510.9 1018.58Z" fill="#282D2E"/>
<path d="M1579.08 1018.58L1573.66 1013.16L1568.23 1018.58L1573.66 1024L1579.08 1018.58Z" fill="#282D2E"/>
<path d="M1647.27 1018.58L1641.84 1013.16L1636.42 1018.58L1641.84 1024L1647.27 1018.58Z" fill="#282D2E"/>
<path d="M1715.45 1018.58L1710.03 1013.16L1704.6 1018.58L1710.03 1024L1715.45 1018.58Z" fill="#282D2E"/>
<path d="M1783.63 1018.58L1778.21 1013.16L1772.78 1018.58L1778.21 1024L1783.63 1018.58Z" fill="#282D2E"/>
<path d="M1851.82 1018.58L1846.39 1013.16L1840.97 1018.58L1846.39 1024L1851.82 1018.58Z" fill="#282D2E"/>
<path d="M1920 1018.58L1914.58 1013.16L1909.15 1018.58L1914.58 1024L1920 1018.58Z" fill="#282D2E"/>
</svg>
